<?xml version="1.0" standalone="no"?>
<!DOCTYPE svg PUBLIC "-//W3C//DTD SVG 20010904//EN"
 "http://www.w3.org/TR/2001/REC-SVG-20010904/DTD/svg10.dtd">
<svg version="1.0" xmlns="http://www.w3.org/2000/svg"
 width="1247.000000pt" height="1034.000000pt" viewBox="0 0 1247.000000 1034.000000"
 preserveAspectRatio="xMidYMid meet">

<g transform="translate(0.000000,1034.000000) scale(0.100000,-0.100000)"
fill="#000000" stroke="none">
<path d="M5930 9804 c0 -21 -4 -24 -20 -19 -12 4 -20 2 -20 -5 0 -6 5 -8 10
-5 6 3 10 -1 10 -9 0 -9 -4 -16 -10 -16 -5 0 -10 -13 -10 -30 0 -20 -5 -30
-15 -30 -9 0 -15 9 -15 25 0 26 -15 34 -23 13 -3 -7 -6 -3 -6 10 -1 12 -5 22
-11 22 -5 0 -10 10 -10 21 0 18 -2 19 -15 9 -12 -10 -19 -10 -27 -2 -30 30
-57 4 -58 -54 0 -11 -9 -29 -21 -40 -19 -17 -21 -18 -30 -1 -13 23 -29 22 -29
-3 0 -26 -24 -26 -61 1 l-29 20 0 -30 c0 -30 -9 -39 -23 -24 -4 3 -2 12 4 19
11 14 4 34 -12 34 -6 0 -8 -8 -4 -19 3 -10 -1 -24 -10 -31 -12 -10 -15 -9 -15
6 0 13 -3 15 -11 7 -9 -9 -8 -18 5 -37 21 -33 20 -46 -4 -46 -11 0 -20 6 -20
14 0 9 -8 12 -25 8 -39 -7 -39 -19 2 -56 32 -31 35 -36 19 -42 -12 -5 -25 1
-41 20 -12 14 -26 26 -30 26 -5 0 0 -9 10 -20 21 -23 19 -27 -17 -31 -16 -3
-34 4 -47 15 -17 15 -37 20 -96 20 -42 0 -75 5 -75 10 0 6 -6 4 -12 -3 -11
-11 -10 -14 0 -18 20 -7 4 -22 -18 -16 -11 3 -17 9 -14 14 3 5 -4 9 -14 9 -11
0 -23 -7 -26 -16 -3 -9 -12 -14 -19 -11 -8 3 -20 1 -28 -3 -8 -5 -19 -4 -26 2
-15 12 -47 -8 -37 -23 9 -15 -26 -22 -52 -11 -13 7 -33 8 -45 4 -20 -8 -20
-10 -5 -24 22 -22 21 -25 -14 -26 -24 0 -30 4 -30 20 0 11 -5 18 -12 15 -7 -2
-12 -14 -10 -25 2 -16 -2 -22 -17 -22 -11 0 -22 8 -24 18 -3 12 -5 10 -6 -7 0
-13 7 -30 17 -37 16 -12 15 -13 -5 -14 -12 0 -43 -10 -70 -22 -50 -22 -57 -25
-73 -27 -5 0 -10 -12 -10 -25 0 -26 -23 -51 -39 -42 -5 4 -12 -3 -16 -13 -3
-11 -22 -30 -42 -42 -33 -21 -37 -21 -48 -6 -11 15 -14 16 -25 2 -7 -8 -19
-15 -26 -15 -8 0 -14 -4 -14 -10 0 -5 12 -10 26 -10 20 0 25 -4 20 -16 -3 -9
-6 -19 -6 -23 0 -4 -19 -18 -42 -31 -24 -12 -51 -29 -60 -37 -10 -9 -25 -12
-37 -8 -16 5 -22 0 -30 -27 -6 -21 -10 -26 -10 -13 -1 15 -3 17 -10 6 -5 -7
-14 -10 -20 -7 -7 5 -11 -1 -11 -13 0 -12 3 -20 8 -19 4 2 9 -1 11 -7 2 -5
-12 -18 -30 -28 -19 -11 -45 -31 -59 -44 -14 -14 -37 -30 -51 -35 -25 -8 -26
-12 -18 -46 10 -45 1 -57 -97 -137 -20 -16 -51 -43 -69 -60 -18 -16 -41 -35
-52 -41 -10 -7 -17 -19 -15 -28 4 -22 -28 -68 -44 -62 -9 3 -14 -2 -14 -12 0
-10 -5 -23 -12 -30 -6 -6 -13 -25 -14 -41 -4 -30 -14 -45 -61 -95 -13 -13 -23
-31 -23 -40 0 -9 -5 -16 -11 -16 -5 0 -7 5 -3 12 5 8 2 9 -10 5 -10 -4 -21 -7
-24 -7 -4 0 -1 -4 7 -9 12 -8 12 -12 2 -25 -8 -9 -20 -16 -28 -16 -8 0 -11 -4
-8 -10 3 -5 -1 -10 -10 -10 -8 0 -18 -6 -21 -14 -3 -8 -18 -19 -34 -26 -16 -7
-46 -31 -67 -54 -38 -42 -40 -43 -94 -39 -145 9 -178 8 -234 -5 -33 -8 -76
-15 -96 -17 -52 -4 -102 -16 -115 -27 -7 -5 -22 -11 -35 -13 -33 -7 -94 -52
-134 -100 -32 -39 -34 -46 -24 -74 7 -19 15 -28 22 -24 7 4 6 -1 -2 -10 -7 -9
-18 -17 -23 -17 -22 0 -82 -80 -122 -165 -93 -194 -100 -217 -102 -355 -2
-141 16 -300 40 -345 9 -16 16 -40 16 -51 0 -12 11 -46 25 -76 14 -30 30 -79
35 -109 10 -49 9 -55 -10 -68 -11 -7 -20 -19 -20 -25 0 -19 44 -56 67 -56 36
0 35 -27 -1 -49 -18 -12 -37 -21 -42 -21 -5 0 -17 -14 -26 -30 -9 -17 -25 -30
-36 -30 -10 0 -22 -4 -28 -9 -5 -5 -25 -11 -44 -13 -27 -2 -35 -8 -40 -27 -7
-30 -46 -60 -85 -65 -52 -6 -85 -18 -79 -27 3 -5 -6 -13 -19 -18 -14 -6 -26
-13 -28 -18 -8 -17 -90 -63 -130 -72 -23 -5 -45 -15 -49 -21 -8 -13 -36 -30
-88 -54 -35 -16 -45 -41 -12 -31 14 4 20 2 20 -8 0 -23 -27 -39 -67 -42 -27
-2 -43 -10 -60 -31 -29 -37 -29 -48 0 -39 40 13 97 17 97 7 0 -14 -21 -29 -53
-37 -19 -5 -27 -13 -27 -30 0 -38 -31 -67 -73 -67 -32 0 -37 -3 -37 -24 0 -26
-26 -44 -64 -44 -14 0 -28 -5 -31 -11 -5 -7 22 -8 84 -4 51 3 91 1 91 -4 0
-20 -31 -33 -67 -28 -20 4 -42 2 -47 -2 -6 -5 -22 -11 -36 -13 -18 -2 -24 -8
-22 -22 4 -22 -26 -45 -88 -67 -60 -21 -130 -66 -130 -83 0 -7 -7 -19 -15 -26
-8 -7 -15 -19 -15 -27 0 -12 7 -14 31 -9 40 8 34 -11 -12 -38 -20 -12 -54 -32
-77 -45 -23 -14 -44 -33 -48 -43 -3 -10 -23 -27 -44 -38 -21 -11 -41 -24 -45
-30 -8 -13 31 -13 56 1 11 5 28 8 37 6 13 -3 10 -7 -13 -18 -29 -13 -41 -21
-67 -46 -41 -38 -46 -60 -28 -108 10 -27 -7 -73 -52 -133 -9 -13 -20 -36 -23
-53 -4 -18 -16 -34 -29 -39 -26 -10 -51 -38 -42 -47 3 -3 17 0 31 7 26 14 42
9 30 -9 -3 -6 -15 -11 -26 -11 -23 0 -24 -9 -3 -24 12 -9 13 -17 4 -40 -8 -23
-7 -31 6 -40 14 -11 10 -19 -31 -70 -39 -47 -46 -62 -42 -86 4 -15 2 -42 -3
-59 -5 -19 -5 -29 1 -26 20 13 8 -14 -13 -27 -13 -9 -29 -36 -37 -62 -7 -26
-24 -60 -36 -74 -12 -15 -25 -38 -28 -52 -4 -14 -25 -49 -47 -78 -22 -29 -40
-59 -40 -67 0 -26 -58 -118 -110 -175 l-50 -55 40 -10 c39 -9 40 -11 26 -30
-9 -11 -16 -29 -16 -41 0 -11 -11 -31 -25 -44 -14 -13 -25 -30 -25 -39 0 -8
-17 -40 -37 -70 -20 -31 -48 -73 -61 -93 -21 -33 -41 -92 -42 -125 0 -7 7 -10
16 -6 18 7 18 7 -4 -79 -5 -20 -28 -71 -51 -113 -49 -92 -52 -112 -13 -117 32
-4 37 -31 7 -36 -41 -8 -72 -55 -54 -83 7 -11 12 -9 24 9 17 24 35 29 35 10 0
-17 -33 -88 -41 -88 -3 0 -14 -21 -24 -47 -10 -27 -26 -60 -37 -75 -22 -31
-33 -115 -17 -134 7 -9 6 -21 -6 -43 -16 -33 -30 -39 -38 -18 -3 6 -6 -3 -6
-22 -1 -18 -10 -50 -20 -70 -19 -36 -41 -96 -41 -112 0 -5 9 -9 20 -9 26 0 25
-8 -2 -38 -15 -16 -19 -26 -11 -29 12 -4 -12 -91 -45 -160 -8 -17 -12 -42 -9
-56 4 -14 0 -32 -9 -45 -9 -13 -14 -28 -12 -34 3 -7 17 11 32 39 26 48 51 71
64 59 7 -8 -27 -75 -49 -97 -10 -10 -19 -27 -19 -38 0 -10 -11 -35 -25 -55
-35 -51 -53 -89 -59 -120 -2 -14 -16 -47 -29 -73 -14 -27 -30 -62 -37 -80 -6
-17 -22 -41 -36 -54 l-24 -22 0 -784 0 -783 5941 0 5942 0 -6 72 c-4 40 -12
127 -17 192 -12 133 -5 161 31 117 l19 -23 -7 33 c-3 19 -19 57 -35 85 -32 58
-36 94 -10 94 9 0 25 7 35 14 15 12 16 21 7 82 -14 98 -28 173 -40 219 -22 80
-22 82 -5 89 10 3 24 1 31 -5 11 -9 14 -8 14 3 0 7 -13 19 -30 25 -16 6 -30
17 -30 23 0 9 3 10 13 1 10 -8 18 -7 32 2 15 12 16 17 5 38 -7 13 -22 34 -33
46 -11 13 -18 26 -14 29 6 6 -8 55 -41 141 -11 28 -17 54 -15 57 8 8 -18 99
-34 117 -7 8 -13 22 -13 30 0 8 -9 33 -20 54 -11 22 -25 58 -31 80 -6 22 -22
52 -35 68 -27 33 -30 54 -9 81 8 11 15 38 15 59 0 33 -2 38 -14 28 -26 -22
-49 42 -24 67 9 9 16 8 30 -5 21 -19 24 -6 4 22 -8 12 -14 48 -14 92 0 43 -7
90 -17 117 -13 34 -15 52 -8 73 10 28 9 124 0 153 -3 8 -8 31 -11 51 -5 25
-13 38 -26 42 -11 3 -20 12 -20 21 0 19 11 21 29 3 11 -10 12 -4 5 33 -4 25
-7 54 -6 64 1 11 -6 25 -15 31 -9 7 -15 24 -14 41 4 57 2 86 -8 98 -12 15 -17
85 -7 107 4 10 1 23 -9 33 -15 15 -15 17 -1 32 20 19 20 21 1 74 -21 60 -20
73 6 60 37 -20 47 -7 37 52 -5 29 -10 64 -12 78 -1 14 -6 33 -10 43 -5 9 -5
28 -2 42 4 14 2 25 -3 25 -13 0 -23 34 -15 54 3 9 12 16 20 16 10 0 5 16 -17
55 -36 64 -36 91 2 87 24 -3 26 0 22 23 -4 19 -8 23 -18 15 -20 -16 -28 4 -20
49 3 22 1 67 -6 101 -9 49 -9 66 1 85 9 17 10 28 3 37 -20 26 -53 143 -53 189
0 25 -7 66 -15 89 -17 48 -20 100 -5 100 5 0 7 8 3 18 -8 22 -50 113 -62 132
-17 28 -51 151 -45 162 4 5 -3 23 -15 39 -11 15 -21 38 -21 50 0 12 -15 35
-34 53 -36 34 -56 66 -56 90 0 30 36 16 79 -29 24 -25 45 -44 48 -42 7 8 -32
67 -44 67 -13 0 -28 38 -19 47 3 4 14 -1 23 -9 10 -9 26 -13 35 -9 15 6 15 7
0 26 -9 12 -32 30 -50 40 -29 17 -34 18 -43 5 -9 -13 -10 -12 -5 2 2 9 -3 42
-12 73 -14 46 -23 60 -53 77 -20 11 -44 35 -52 54 -16 32 -16 34 6 49 24 17
24 17 -30 52 -17 12 -17 13 0 26 22 18 22 34 -1 41 -10 4 -33 21 -51 40 l-33
34 21 24 22 23 20 -25 20 -25 -7 28 c-5 21 -1 34 17 53 l22 24 -24 0 c-41 0
-63 23 -64 66 0 34 -4 41 -35 55 -19 9 -46 30 -60 46 -29 35 -102 83 -125 83
-18 0 -39 46 -30 68 3 10 14 12 37 7 31 -6 32 -5 14 9 -10 9 -23 13 -28 10 -5
-3 -20 1 -33 10 -13 9 -32 16 -42 16 -10 0 -31 11 -47 25 -16 14 -39 25 -50
25 -33 0 -66 28 -66 55 0 20 -7 26 -42 35 -24 5 -56 15 -73 21 -16 6 -45 14
-63 19 -18 4 -38 12 -45 18 -7 5 -39 19 -72 30 -106 37 -147 52 -176 67 -15 8
-40 15 -54 15 -14 0 -36 11 -48 23 -16 18 -31 23 -57 21 -19 -2 -53 2 -75 8
-55 16 -53 15 -75 17 -33 2 -23 37 20 71 30 24 40 39 40 61 0 26 41 114 98
209 48 79 70 128 82 180 6 30 22 82 35 115 23 61 44 145 66 270 9 50 12 211
12 560 0 525 -2 550 -55 665 -20 44 -83 135 -119 171 -11 11 -19 22 -19 27 0
10 -50 61 -100 102 -23 19 -50 42 -59 50 -46 43 -143 100 -168 100 -8 0 -25 7
-39 16 -17 11 -48 17 -92 18 -81 0 -186 -9 -201 -18 -13 -8 -31 1 -31 15 0 5
9 9 20 9 11 0 20 5 20 10 0 13 8 14 -107 -11 -152 -34 -187 -29 -331 47 -66
34 -111 67 -155 111 -34 35 -64 69 -66 76 -2 6 -16 21 -30 32 -14 11 -50 42
-78 69 -29 27 -53 43 -53 35 0 -9 -9 -5 -25 11 -46 47 -134 110 -154 110 -5 0
-14 7 -21 15 -10 12 -10 15 2 15 8 0 18 -4 24 -9 14 -13 54 -24 54 -14 0 8
-24 20 -100 49 -69 26 -189 86 -252 127 -32 21 -69 42 -84 47 -15 6 -38 19
-53 29 -14 10 -43 24 -63 32 -21 7 -38 17 -38 21 0 17 -4 23 -24 39 -29 22
-117 69 -128 69 -6 0 -22 8 -36 18 -23 15 -88 45 -157 72 -31 13 -128 28 -255
40 -63 6 -151 16 -194 21 -44 5 -84 5 -90 0 -18 -13 -66 -22 -66 -12 0 5 10
12 23 14 12 2 -8 5 -45 6 -40 0 -68 -3 -68 -9 0 -5 -5 -10 -11 -10 -5 0 -7 5
-4 10 4 6 -23 10 -74 10 -54 0 -81 -4 -85 -12 -5 -10 -7 -10 -12 0 -4 9 -57
12 -215 12 -179 0 -209 -2 -209 -15 0 -8 -7 -15 -15 -15 -8 0 -15 7 -15 15 0
11 -11 15 -43 15 -36 0 -45 -4 -59 -28 -10 -16 -20 -48 -24 -70 -9 -59 -28
-54 -21 6 4 26 8 57 11 70 4 17 0 22 -15 22 -14 0 -19 -7 -19 -26z m610 7 c0
-6 -4 -13 -10 -16 -5 -3 -10 1 -10 9 0 9 5 16 10 16 6 0 10 -4 10 -9z m265
-12 c-8 -12 -45 -12 -45 0 0 10 30 20 43 14 4 -3 5 -9 2 -14z m265 -23 c0 -3
-4 -8 -10 -11 -5 -3 -10 -1 -10 4 0 6 5 11 10 11 6 0 10 -2 10 -4z m-85 -16
c-3 -5 -10 -10 -16 -10 -5 0 -9 5 -9 10 0 6 7 10 16 10 8 0 12 -4 9 -10z m185
-70 c0 -5 -5 -10 -11 -10 -5 0 -7 5 -4 10 3 6 8 10 11 10 2 0 4 -4 4 -10z
m-1620 -124 c0 -3 -4 -8 -10 -11 -5 -3 -10 -1 -10 4 0 6 5 11 10 11 6 0 10 -2
10 -4z m-653 -148 c-3 -8 -6 -5 -6 6 -1 11 2 17 5 13 3 -3 4 -12 1 -19z m-67
-19 c0 -5 -9 -9 -19 -9 -11 0 -22 4 -25 9 -3 5 6 9 19 9 14 0 25 -4 25 -9z
m-190 -109 c0 -5 -4 -10 -10 -10 -5 0 -10 5 -10 10 0 6 5 10 10 10 6 0 10 -4
10 -10z m-506 -449 c-20 -22 -34 -27 -34 -11 0 18 34 50 43 41 5 -5 1 -18 -9
-30z m5106 -105 c0 -2 -7 -6 -15 -10 -8 -3 -15 -1 -15 4 0 6 7 10 15 10 8 0
15 -2 15 -4z m-5275 -150 c-9 -14 -26 -28 -37 -32 -12 -3 -41 -25 -66 -48 -31
-27 -40 -33 -29 -16 16 25 139 130 145 125 2 -2 -4 -15 -13 -29z m5325 -84 c0
-12 -39 -46 -45 -40 -6 5 27 48 38 48 4 0 7 -4 7 -8z m80 -63 c0 -5 -7 -9 -16
-9 -8 0 -12 -5 -9 -11 10 -15 -16 -71 -42 -92 -13 -10 -23 -24 -23 -31 0 -7
-11 -21 -24 -32 -14 -10 -27 -28 -31 -41 -3 -14 -13 -23 -25 -23 -11 0 -20 -5
-20 -11 0 -11 -29 -38 -41 -39 -3 0 -4 11 -1 25 4 21 1 24 -14 18 -28 -10 -36
-27 -16 -35 14 -5 14 -7 -4 -7 -12 -1 -27 6 -34 14 -7 9 -8 15 -2 15 5 0 13 7
16 16 9 23 -4 64 -19 64 -19 0 -27 33 -16 63 6 14 24 38 41 53 16 15 30 33 30
41 0 7 5 13 10 13 17 0 11 -20 -16 -55 -14 -18 -21 -36 -16 -39 6 -3 22 10 36
28 14 19 34 34 44 34 9 -1 29 1 44 5 22 6 26 4 22 -8 -4 -8 -1 -15 5 -15 6 0
11 7 11 15 0 8 6 12 13 10 7 -3 28 8 47 24 33 28 50 31 50 10z m-296 -224 c-4
-8 -10 -15 -15 -15 -5 0 -9 7 -9 15 0 8 7 15 15 15 9 0 12 -6 9 -15z m-5554
-125 c0 -5 -8 -10 -17 -10 -15 0 -16 2 -3 10 19 12 20 12 20 0z m-20 -35 c0
-8 -9 -15 -20 -15 -20 0 -26 11 -13 23 12 13 33 7 33 -8z m-290 -135 c0 -5 -2
-10 -4 -10 -3 0 -8 5 -11 10 -3 6 -1 10 4 10 6 0 11 -4 11 -10z m396 -324 c-3
-14 -2 -28 4 -31 18 -11 10 -26 -10 -20 -15 5 -20 2 -20 -14 0 -30 -14 -33
-58 -14 -36 15 -39 19 -29 40 13 28 31 31 22 3 -5 -15 -3 -18 9 -14 9 3 16 13
16 21 0 9 6 13 15 9 9 -3 15 0 15 9 0 9 6 12 15 9 9 -4 15 0 15 10 0 9 3 16 6
16 3 0 3 -11 0 -24z m-129 -8 c-3 -8 -6 -5 -6 6 -1 11 2 17 5 13 3 -3 4 -12 1
-19z m191 0 c-6 -18 -28 -21 -28 -4 0 9 7 16 16 16 9 0 14 -5 12 -12z m-7
-110 c-9 -25 -42 -31 -49 -9 -3 8 0 11 5 8 6 -4 19 0 29 8 25 19 25 19 15 -7z
m-71 8 c0 -3 -4 -8 -10 -11 -5 -3 -10 -1 -10 4 0 6 5 11 10 11 6 0 10 -2 10
-4z m3935 -223 c11 0 26 4 33 10 10 8 16 7 23 -4 15 -23 11 -41 -8 -35 -13 4
-22 -2 -30 -21 -17 -35 -16 -43 3 -43 8 0 13 -4 10 -9 -4 -5 -19 -5 -36 2 -34
13 -42 50 -12 62 16 6 16 7 0 19 -10 7 -18 19 -18 27 0 9 3 10 8 3 4 -6 16
-11 27 -11z m99 -9 c9 -24 2 -26 -12 -4 -7 11 -8 20 -3 20 5 0 12 -7 15 -16z
m111 -6 c35 -23 46 -48 22 -48 -7 0 -18 9 -25 20 -7 12 -23 20 -38 20 -22 0
-25 2 -14 15 16 19 14 19 55 -7z m-302 -44 c-7 -18 -11 -18 -29 1 -10 9 -13
23 -9 36 l7 20 18 -21 c10 -12 16 -28 13 -36z m-133 36 c0 -5 -7 -10 -15 -10
-8 0 -15 5 -15 10 0 6 7 10 15 10 8 0 15 -4 15 -10z m614 -22 c-3 -5 2 -8 11
-6 10 2 20 -3 22 -9 9 -24 -34 -13 -45 12 -9 20 -9 23 3 18 8 -3 12 -9 9 -15z
m2216 -8 c5 -38 -1 -60 -17 -61 -17 -1 -17 -2 0 -6 20 -5 22 -26 4 -41 -18
-15 -47 10 -47 40 0 14 7 31 15 38 8 7 15 20 15 30 0 34 26 35 30 0z m-2652
-3 c2 -10 -3 -17 -12 -17 -10 0 -16 9 -16 21 0 24 23 21 28 -4z m235 1 c41
-15 27 -33 -23 -31 -67 3 -76 9 -54 34 10 12 24 17 33 13 9 -3 29 -11 44 -16z
m368 4 c-7 -2 -18 1 -23 6 -8 8 -4 9 13 5 13 -4 18 -8 10 -11z m-934 -8 c11
-11 13 -18 5 -26 -13 -13 -47 16 -37 32 8 14 14 13 32 -6z m673 6 c0 -5 -4
-10 -10 -10 -5 0 -10 5 -10 10 0 6 5 10 10 10 6 0 10 -4 10 -10z m-740 -18 c0
-4 14 -16 31 -26 22 -13 27 -21 20 -30 -6 -7 -8 -15 -5 -19 9 -9 -30 -26 -52
-23 -12 2 -21 13 -24 32 -4 19 -8 25 -13 17 -13 -21 -27 -15 -23 10 3 12 5 26
5 31 1 4 8 6 16 3 8 -4 17 -2 20 3 7 12 25 13 25 2z m516 -49 c-11 -11 -26 10
-26 35 l0 27 15 -29 c9 -16 13 -31 11 -33z m285 35 c11 -11 19 -25 19 -31 0
-5 6 -7 14 -4 14 6 44 -48 33 -59 -12 -12 -68 -6 -91 10 -28 18 -32 39 -16 80
12 32 17 32 41 4z m109 4 c0 -5 14 -9 32 -9 18 0 34 -5 36 -11 2 -7 10 -12 17
-12 7 0 25 -16 39 -35 15 -19 33 -35 41 -35 7 0 15 -6 18 -12 2 -7 7 -10 11
-7 4 3 2 19 -4 34 -9 25 -9 26 5 15 8 -7 15 -21 15 -31 0 -11 4 -19 10 -19 5
0 16 -12 23 -26 9 -17 17 -23 21 -15 11 17 29 13 22 -5 -4 -9 -2 -22 3 -28 15
-19 24 -76 12 -76 -6 0 -11 -6 -11 -14 0 -25 -28 -25 -55 0 -15 14 -29 23 -32
20 -3 -2 -25 9 -50 24 -25 16 -50 27 -54 24 -5 -3 -9 2 -9 10 0 9 -7 16 -15
16 -12 0 -13 4 -3 25 9 21 7 30 -13 59 -13 19 -31 37 -41 39 -15 4 -15 2 2
-22 10 -14 22 -39 26 -56 l7 -30 -22 24 c-11 13 -21 28 -21 33 0 5 -5 6 -11 2
-13 -8 -29 13 -29 39 0 12 4 16 13 11 9 -6 9 -5 1 7 -17 20 -15 69 2 69 8 0
14 -4 14 -8z m-690 -8 c0 -3 -5 -15 -11 -26 -9 -17 -13 -18 -20 -7 -15 23 -10
39 11 39 11 0 20 -3 20 -6z m470 -4 c0 -5 -4 -10 -10 -10 -5 0 -10 5 -10 10 0
6 5 10 10 10 6 0 10 -4 10 -10z m-561 -60 c-19 -13 -28 -3 -27 30 l1 29 20
-26 c16 -20 17 -27 6 -33z m141 35 c0 -25 -14 -34 -24 -16 -8 12 3 41 15 41 5
0 9 -11 9 -25z m-356 -20 c19 -14 19 -15 -5 -15 -14 0 -30 -5 -37 -12 -9 -9
-12 -9 -12 3 0 15 19 39 30 39 3 0 14 -7 24 -15z m406 8 c0 -17 -19 -35 -29
-29 -18 12 -12 36 9 36 11 0 20 -3 20 -7z m98 -18 c16 -16 16 -17 -5 -10 -14
4 -23 2 -23 -4 0 -16 -26 -13 -40 4 -28 34 36 44 68 10z m2197 7 c-3 -3 -11 0
-18 7 -9 10 -8 11 6 5 10 -3 15 -9 12 -12z m-2385 -6 c0 -8 -4 -18 -10 -21 -5
-3 -10 3 -10 14 0 12 5 21 10 21 6 0 10 -6 10 -14z m243 -27 c-7 -24 -8 -22
-17 15 -6 25 -5 28 7 17 8 -6 13 -21 10 -32z m134 25 c2 -6 -3 -11 -12 -11 -8
0 -15 7 -15 15 0 15 22 12 27 -4z m-430 -16 c-3 -8 -6 -5 -6 6 -1 11 2 17 5
13 3 -3 4 -12 1 -19z m-223 -23 c3 -9 0 -15 -9 -15 -16 0 -27 14 -18 24 10 10
21 7 27 -9z m140 -10 c-7 -18 -16 -19 -32 -3 -9 9 -12 8 -12 -5 0 -9 -4 -17
-10 -17 -11 0 -14 23 -3 33 3 4 19 7 34 7 21 0 27 -4 23 -15z m2943 -21 c2
-10 -6 -30 -16 -44 -16 -19 -23 -22 -32 -13 -9 9 -8 20 5 48 18 38 39 42 43 9z
m-4257 -24 c5 0 7 7 3 16 -4 12 -2 15 8 12 8 -2 16 -15 17 -29 2 -13 10 -28
18 -32 18 -10 18 -27 0 -27 -7 0 -19 -7 -26 -15 -7 -9 -20 -14 -29 -13 -9 2
-32 -4 -51 -13 -36 -18 -67 -9 -53 14 4 6 0 8 -10 4 -12 -5 -17 -1 -17 13 0
10 5 22 10 25 6 3 10 -1 10 -9 0 -22 25 -9 39 20 6 14 16 22 21 19 6 -3 10 -1
10 4 0 6 7 11 16 11 8 0 12 5 9 10 -3 6 -3 16 2 23 6 8 9 5 11 -10 2 -13 7
-23 12 -23z m60 16 c0 -23 -16 -27 -17 -5 -1 10 2 19 8 19 5 0 9 -6 9 -14z
m110 -27 c0 -6 6 -9 13 -6 6 3 19 8 28 11 10 5 20 -2 30 -21 8 -15 21 -34 29
-40 13 -11 13 -14 0 -23 -8 -6 -34 -16 -57 -22 -30 -9 -43 -18 -43 -30 0 -10
-5 -18 -12 -18 -9 0 -9 -3 0 -12 31 -31 -11 -53 -69 -38 -39 11 -41 13 -25 28
12 13 19 14 28 4 19 -19 31 -14 25 11 -3 12 -1 31 3 42 5 11 9 14 9 8 1 -7 8
-13 16 -13 19 0 19 9 0 34 -13 17 -13 40 1 84 4 15 24 16 24 1z m-850 -8 c0
-11 -59 -36 -67 -27 -3 3 1 6 9 6 9 0 18 7 22 15 6 16 36 21 36 6z m340 -1 c0
-5 -8 -10 -17 -10 -15 0 -16 2 -3 10 19 12 20 12 20 0z m2150 -6 c0 -8 -5 -12
-10 -9 -6 4 -8 11 -5 16 9 14 15 11 15 -7z m90 -19 c-16 -19 -30 -19 -30 0 0
8 7 15 15 15 8 0 15 6 16 13 0 9 2 9 6 -1 3 -7 -1 -19 -7 -27z m47 -2 c-14
-25 -16 -26 -23 -9 -5 13 -2 23 11 32 25 19 29 11 12 -23z m-2357 23 c0 -3 -4
-8 -10 -11 -5 -3 -10 -1 -10 4 0 6 5 11 10 11 6 0 10 -2 10 -4z m115 -6 c3 -5
1 -10 -4 -10 -6 0 -11 5 -11 10 0 6 2 10 4 10 3 0 8 -4 11 -10z m2141 -1 c7
-12 -22 -46 -32 -37 -8 9 5 48 16 48 5 0 12 -5 16 -11z m-2441 -46 c-15 -13
-29 -22 -31 -20 -8 8 8 37 21 37 7 0 16 8 20 18 6 13 8 14 13 3 3 -8 -7 -25
-23 -38z m2375 15 c0 -5 -7 -8 -15 -8 -8 0 -15 -8 -15 -17 0 -15 -2 -16 -10
-3 -6 10 -5 17 5 23 8 4 15 16 15 25 0 15 2 15 10 2 5 -8 10 -18 10 -22z
m-2214 8 c8 -8 14 -21 14 -29 0 -15 -30 -46 -30 -31 0 5 -4 3 -9 -5 -14 -22
-49 -22 -44 0 3 10 11 15 19 12 15 -5 44 13 44 28 0 5 -9 9 -20 9 -20 0 -26
11 -13 23 10 11 23 8 39 -7z m1442 -44 c-8 -9 -19 -26 -23 -37 -8 -18 -9 -17
-13 10 -2 16 1 31 7 33 6 2 11 12 11 21 0 28 14 34 24 12 6 -15 5 -26 -6 -39z
m1117 48 c4 -6 14 -9 23 -8 13 3 16 -7 17 -52 1 -30 -1 -47 -3 -37 -2 9 -7 17
-11 17 -4 0 -13 16 -20 35 -7 19 -17 35 -22 35 -5 0 -9 5 -9 10 0 13 17 13 25
0z m-2277 -82 c-3 -30 -4 -31 -20 -15 -9 9 -25 17 -35 18 -15 0 -15 2 3 9 30
12 36 26 18 40 -12 11 -12 15 -2 21 18 11 40 -34 36 -73z m4396 67 c3 -9 -3
-19 -14 -25 -15 -8 -18 -15 -11 -28 10 -19 -16 -112 -31 -112 -38 0 5 179 43
180 4 0 9 -7 13 -15z m-4620 -10 c3 -8 1 -15 -4 -15 -6 0 -10 7 -10 15 0 8 2
15 4 15 2 0 6 -7 10 -15z m-391 -27 c-10 -11 -19 -15 -21 -9 -6 19 -22 12 -22
-9 0 -11 -7 -23 -15 -26 -8 -4 -15 -10 -15 -16 0 -5 4 -6 10 -3 5 3 12 -6 16
-19 5 -20 12 -25 33 -24 14 1 35 7 46 14 22 13 75 27 75 20 0 -20 -16 -36 -36
-36 -17 0 -24 -6 -24 -18 0 -21 -21 -41 -65 -62 -16 -8 -42 -28 -57 -44 -32
-37 -46 -30 -23 13 8 17 11 31 6 31 -6 0 -15 -9 -21 -20 -6 -11 -19 -20 -29
-20 -18 0 -41 -38 -41 -69 0 -18 -42 -61 -60 -61 -6 0 -13 7 -17 15 -4 12 -13
7 -42 -22 l-36 -37 -3 32 c-2 18 -7 32 -13 32 -12 0 -12 57 1 65 6 3 10 16 10
27 0 12 3 18 7 14 4 -4 8 -15 8 -24 0 -22 25 -22 38 -1 10 17 7 30 -15 62 -11
15 -7 23 32 58 25 23 56 48 70 57 14 9 28 22 33 29 4 7 23 15 42 19 18 3 36
12 39 19 3 8 21 17 41 21 19 3 38 10 41 15 3 5 10 7 15 3 6 -4 3 -14 -8 -26z
m217 12 c0 -11 -7 -20 -15 -20 -8 0 -15 -4 -15 -10 0 -5 -4 -10 -10 -10 -10 0
-3 27 13 48 14 18 27 15 27 -8z m224 7 c7 -7 10 -21 6 -31 -6 -17 -7 -17 -23
-2 -19 19 -23 46 -6 46 6 0 16 -6 23 -13z m96 -5 c0 -12 -3 -12 -15 -2 -8 7
-15 13 -15 15 0 1 7 2 15 2 8 0 15 -7 15 -15z m1940 14 c0 -3 -4 -8 -10 -11
-5 -3 -10 -1 -10 4 0 6 5 11 10 11 6 0 10 -2 10 -4z m340 -6 c0 -5 -5 -10 -11
-10 -5 0 -7 5 -4 10 3 6 8 10 11 10 2 0 4 -4 4 -10z m-1740 -18 c0 -4 -9 -13
-20 -20 -16 -10 -20 -10 -20 1 0 8 3 17 7 20 9 9 33 9 33 -1z m1695 -2 c-3 -5
-10 -10 -16 -10 -5 0 -9 5 -9 10 0 6 7 10 16 10 8 0 12 -4 9 -10z m-2701 -15
c3 -8 13 -15 22 -15 13 0 14 -3 5 -14 -14 -17 -39 -15 -52 5 -8 12 -11 11 -20
-3 -12 -22 -29 -23 -29 -4 0 16 37 46 56 46 7 0 14 -7 18 -15z m2766 11 c0 -1
-5 -17 -11 -34 -7 -20 -15 -29 -25 -25 -8 3 -14 9 -14 15 0 5 4 7 9 4 5 -3 12
5 15 19 4 14 11 25 16 25 6 0 10 -2 10 -4z m-2190 -10 c0 -3 -4 -8 -10 -11 -5
-3 -10 -1 -10 4 0 6 5 11 10 11 6 0 10 -2 10 -4z m1232 -28 c-7 -7 -12 -8 -12
-2 0 14 12 26 19 19 2 -3 -1 -11 -7 -17z m1015 0 c-3 -8 -6 -5 -6 6 -1 11 2
17 5 13 3 -3 4 -12 1 -19z m-1088 -33 c0 -5 -4 -3 -9 5 -5 8 -9 22 -9 30 0 16
17 -16 18 -35z m-402 -5 c-1 -26 -6 -40 -15 -40 -8 0 -12 -9 -10 -22 2 -19 -2
-23 -24 -23 -32 -1 -36 12 -10 31 16 12 16 13 0 14 -9 0 -24 -10 -32 -22 -9
-12 -16 -17 -16 -11 0 7 5 15 10 18 6 4 8 10 5 15 -7 11 26 29 43 23 6 -3 12
2 12 11 0 9 7 16 15 16 8 0 15 7 15 15 0 8 2 15 4 15 3 0 4 -18 3 -40z m213
30 c0 -5 -5 -10 -11 -10 -5 0 -7 5 -4 10 3 6 8 10 11 10 2 0 4 -4 4 -10z
m-473 -25 c-23 -22 -33 -18 -12 5 10 11 20 18 23 16 2 -3 -3 -12 -11 -21z
m340 -7 c-3 -7 -5 -2 -5 12 0 14 2 19 5 13 2 -7 2 -19 0 -25z m-42 -18 c-10
-11 -21 -17 -24 -14 -3 3 3 12 13 20 28 20 32 17 11 -6z m-226 -6 c2 -2 2 -7
-2 -10 -8 -9 -47 6 -47 17 0 9 37 3 49 -7z m-1039 -31 c0 -7 5 -13 10 -13 6 0
10 4 10 9 0 5 9 7 20 4 12 -3 18 -11 15 -17 -3 -6 -8 -19 -11 -28 -9 -24 -24
-23 -24 2 0 11 -7 20 -15 20 -8 0 -23 -9 -32 -20 -10 -11 -24 -20 -33 -20 -23
-1 -48 -23 -61 -56 l-12 -29 -8 25 -7 25 -7 -22 c-9 -28 -35 -31 -35 -5 0 11
11 24 25 30 14 6 25 16 25 21 0 5 15 13 33 16 43 10 55 21 50 48 -4 21 -1 24
26 24 19 0 31 -5 31 -14z m4760 -33 c0 -5 -4 -10 -10 -10 -5 0 -10 5 -10 10 0
6 5 10 10 10 6 0 10 -4 10 -10z m-4630 -25 c0 -8 -2 -15 -4 -15 -2 0 -6 7 -10
15 -3 8 -1 15 4 15 6 0 10 -7 10 -15z m37 -7 c-3 -8 -6 -5 -6 6 -1 11 2 17 5
13 3 -3 4 -12 1 -19z m-117 -23 c0 -21 -43 -60 -69 -62 -16 -1 -18 2 -12 20 5
12 21 29 37 39 37 21 44 22 44 3z m4710 -14 c0 -5 -9 -11 -20 -14 -13 -3 -20
0 -20 10 0 8 5 11 10 8 6 -3 10 -1 10 5 0 6 5 8 10 5 6 -3 10 -10 10 -14z
m-4790 5 c0 -2 -7 -17 -15 -32 -12 -24 -15 -26 -16 -9 -1 18 -2 18 -6 2 -5
-21 -27 -18 -31 5 -2 8 7 20 20 26 23 11 48 15 48 8z m-533 -98 c-6 -32 -15
-58 -19 -58 -12 0 -10 58 2 65 6 3 10 20 10 38 0 18 4 27 9 22 5 -6 4 -34 -2
-67z m361 -19 c2 -16 -4 -28 -18 -37 -16 -10 -20 -10 -20 2 0 8 7 17 15 20 13
5 14 10 4 27 -9 17 -8 20 3 17 7 -3 14 -15 16 -29z m-47 -16 c-9 -16 -10 -14
-11 12 0 21 3 26 11 18 8 -8 8 -16 0 -30z m99 22 c0 -8 -4 -15 -10 -15 -5 0
-10 7 -10 15 0 8 5 15 10 15 6 0 10 -7 10 -15z m-501 -50 c-5 -19 -9 -37 -8
-42 3 -17 -1 -36 -7 -30 -13 12 -15 99 -3 113 18 22 29 -2 18 -41z m5326 35
c-3 -5 -10 -10 -16 -10 -5 0 -9 5 -9 10 0 6 7 10 16 10 8 0 12 -4 9 -10z
m-5115 -21 c0 -11 -4 -17 -10 -14 -5 3 -10 13 -10 21 0 8 5 14 10 14 6 0 10
-9 10 -21z m-271 -60 c-7 -24 -21 -56 -31 -71 -14 -21 -16 -32 -9 -46 13 -25
3 -60 -20 -67 -10 -4 -19 -13 -19 -21 0 -8 -4 -12 -10 -9 -5 3 -10 -1 -10 -9
0 -9 -4 -16 -10 -16 -12 0 -12 -4 4 85 8 42 18 69 24 68 7 -2 12 8 12 23 0 31
35 111 52 117 24 8 30 -10 17 -54z m5381 41 c0 -5 -5 -10 -11 -10 -5 0 -7 5
-4 10 3 6 8 10 11 10 2 0 4 -4 4 -10z m-5290 -19 c0 -12 -20 -25 -27 -18 -7 7
6 27 18 27 5 0 9 -4 9 -9z m2954 -131 c16 -16 -2 -40 -33 -40 -28 0 -41 14
-41 47 0 12 7 14 32 9 18 -3 36 -10 42 -16z m-134 -20 c0 -22 -34 -44 -56 -36
-19 7 -18 33 4 45 28 17 52 13 52 -9z m-4990 0 c0 -5 -4 -10 -10 -10 -5 0 -10
5 -10 10 0 6 5 10 10 10 6 0 10 -4 10 -10z m7290 -20 c0 -5 -4 -10 -10 -10 -5
0 -10 5 -10 10 0 6 5 10 10 10 6 0 10 -4 10 -10z m-4095 -152 c32 -14 32 -25
-1 -40 -23 -11 -29 -10 -45 11 -31 38 -6 53 46 29z m-115 -12 c0 -18 -27 -46
-45 -46 -26 0 -25 18 1 39 31 25 44 26 44 7z m1694 -18 c8 -32 -10 -47 -29
-22 -20 26 -19 44 4 44 11 0 21 -9 25 -22z m-161 -21 c3 -8 1 -20 -4 -28 -6
-10 -9 -7 -9 14 0 29 5 35 13 14z m115 -20 c2 -10 -3 -17 -12 -17 -10 0 -16 9
-16 21 0 24 23 21 28 -4z m462 -43 c0 -8 -5 -12 -10 -9 -6 4 -8 11 -5 16 9 14
15 11 15 -7z m-4710 -9 c0 -8 -4 -15 -10 -15 -5 0 -10 7 -10 15 0 8 5 15 10
15 6 0 10 -7 10 -15z m631 -38 c-8 -8 -11 -5 -11 9 0 27 14 41 18 19 2 -9 -1
-22 -7 -28z m3565 16 c-10 -10 -19 5 -10 18 6 11 8 11 12 0 2 -7 1 -15 -2 -18z
m21 5 c-3 -8 -6 -5 -6 6 -1 11 2 17 5 13 3 -3 4 -12 1 -19z m71 -17 c3 -8 -1
-12 -9 -9 -7 2 -15 10 -17 17 -3 8 1 12 9 9 7 -2 15 -10 17 -17z m42 15 c0 -3
-4 -8 -10 -11 -5 -3 -10 -1 -10 4 0 6 5 11 10 11 6 0 10 -2 10 -4z m-3543 -28
c-3 -8 -6 -5 -6 6 -1 11 2 17 5 13 3 -3 4 -12 1 -19z m4307 -35 c9 -27 -9 -30
-38 -8 -17 13 -18 18 -6 40 12 23 14 23 25 7 7 -9 15 -27 19 -39z m-2163 4
c-17 -17 -24 -1 -9 22 11 18 14 19 16 5 2 -9 -1 -21 -7 -27z m95 -3 c-16 -30
-21 -17 -10 24 4 15 10 20 16 14 6 -6 4 -20 -6 -38z m-2406 1 c0 -14 -4 -25
-9 -25 -4 0 -6 11 -3 25 2 14 6 25 8 25 2 0 4 -11 4 -25z m2370 11 c0 -8 -4
-18 -10 -21 -5 -3 -10 3 -10 14 0 12 5 21 10 21 6 0 10 -6 10 -14z m168 2 c-6
-18 -28 -21 -28 -4 0 9 7 16 16 16 9 0 14 -5 12 -12z m2250 -88 c7 0 12 -4 12
-10 0 -5 -9 -10 -20 -10 -11 0 -20 4 -20 9 0 5 -18 26 -40 47 -22 21 -40 45
-40 53 0 8 22 -8 48 -37 27 -29 54 -52 60 -52z m-4862 45 c-3 -13 -2 -27 4
-30 5 -3 10 2 10 11 0 10 3 15 6 11 11 -10 -17 -108 -30 -104 -12 4 -21 109
-12 134 9 23 28 3 22 -22z m-1478 7 c2 -8 -8 -12 -30 -12 -31 1 -32 1 -13 15
21 17 37 15 43 -3z m4042 3 c0 -8 -7 -15 -15 -15 -8 0 -15 7 -15 15 0 8 7 15
15 15 8 0 15 -7 15 -15z m1580 5 c0 -12 -28 -25 -36 -17 -9 9 6 27 22 27 8 0
14 -5 14 -10z m-180 -52 c0 -10 -8 -10 -54 3 -24 7 -35 14 -27 18 13 9 81 -10
81 -21z m564 26 c-7 -3 -10 -14 -7 -24 6 -22 -12 -28 -20 -6 -6 15 11 36 28
35 6 0 5 -2 -1 -5z m126 -14 c0 -5 -2 -10 -4 -10 -3 0 -8 5 -11 10 -3 6 -1 10
4 10 6 0 11 -4 11 -10z m-2109 -23 c-10 -9 -11 -8 -5 6 3 10 9 15 12 12 3 -3
0 -11 -7 -18z m1453 4 c3 -5 15 -7 26 -4 26 7 70 -22 70 -47 0 -24 0 -24 -49
-4 -37 14 -84 64 -62 64 5 0 12 -4 15 -9z m693 -7 c-3 -3 -2 -16 3 -28 6 -17
4 -25 -12 -35 -19 -12 -20 -11 -15 11 4 12 7 31 7 41 0 9 5 17 12 17 6 0 9 -3
5 -6z m-390 -30 c2 -6 -10 -8 -32 -6 -19 2 -35 8 -35 12 0 11 63 6 67 -6z
m158 6 c-3 -5 -17 -10 -31 -10 -13 0 -24 5 -24 10 0 6 14 10 31 10 17 0 28 -4
24 -10z m-4409 -26 c-4 -9 -9 -15 -11 -12 -3 3 -3 13 1 22 4 9 9 15 11 12 3
-3 3 -13 -1 -22z m2341 15 c-14 -8 -22 -8 -30 0 -8 8 -3 11 19 11 25 -1 27 -2
11 -11z m-57 -9 c0 -5 -4 -10 -10 -10 -5 0 -10 5 -10 10 0 6 5 10 10 10 6 0
10 -4 10 -10z m-80 -4 c0 -3 -4 -8 -10 -11 -5 -3 -10 -1 -10 4 0 6 5 11 10 11
6 0 10 -2 10 -4z m2347 -12 c2 -7 -7 -11 -22 -11 -25 0 -31 7 -18 21 10 10 36
3 40 -10z m-367 -30 c36 -6 66 -13 68 -13 1 -1 5 -1 10 -2 4 -1 20 -10 35 -21
20 -14 39 -19 67 -16 27 2 41 -1 45 -10 3 -7 9 -10 15 -7 5 3 10 2 10 -4 0
-15 -40 -40 -59 -36 -69 17 -90 23 -102 31 -8 5 -25 10 -38 12 -14 2 -36 11
-50 21 -14 10 -36 22 -48 25 -13 4 -23 12 -23 17 0 5 -7 9 -15 9 -8 0 -15 5
-15 11 0 7 7 8 18 3 9 -4 46 -13 82 -20z m-1830 7 c0 -5 -7 -12 -16 -15 -14
-5 -15 -4 -4 9 14 17 20 19 20 6z m-176 -16 c-22 -17 -34 -19 -34 -6 0 5 8 12
18 14 32 9 36 7 16 -8z m71 5 c-3 -5 -12 -10 -18 -10 -7 0 -6 4 3 10 19 12 23
12 15 0z m2215 0 c0 -5 -4 -10 -10 -10 -5 0 -10 5 -10 10 0 6 5 10 10 10 6 0
10 -4 10 -10z m-530 -20 c0 -5 -9 -6 -20 -3 -11 3 -20 9 -20 13 0 5 9 6 20 3
11 -3 20 -9 20 -13z m560 10 c0 -5 -4 -10 -10 -10 -5 0 -10 5 -10 10 0 6 5 10
10 10 6 0 10 -4 10 -10z m-2800 -50 c41 0 50 -3 55 -21 8 -23 -11 -42 -32 -34
-7 2 -13 1 -13 -4 0 -4 -11 -6 -24 -4 -18 4 -25 0 -29 -17 -3 -12 -10 -19 -16
-15 -6 3 -9 11 -6 16 4 5 -1 9 -9 9 -9 0 -16 3 -16 8 0 4 -3 17 -6 29 -4 14 2
29 17 44 21 21 24 22 27 6 3 -13 14 -17 52 -17z m2300 9 c0 -14 -17 -10 -23 5
-4 10 -1 13 9 9 7 -3 14 -9 14 -14z m635 11 c3 -5 -1 -10 -9 -10 -9 0 -16 5
-16 10 0 6 4 10 9 10 6 0 13 -4 16 -10z m-2365 -26 c0 -14 -22 -44 -33 -44 -7
0 -18 -9 -25 -20 -7 -11 -19 -20 -27 -20 -8 0 -15 -3 -15 -7 0 -8 -47 -33 -62
-33 -22 0 -3 18 43 40 28 13 63 39 78 57 24 30 41 42 41 27z m1804 -24 c9 0
16 -4 16 -9 0 -4 11 -6 24 -4 15 3 28 -2 37 -14 8 -10 26 -18 44 -18 17 0 49
-8 73 -18 23 -10 60 -19 82 -20 43 -1 49 -7 26 -26 -11 -9 -20 -9 -34 -2 -11
6 -22 8 -25 4 -4 -3 -13 -1 -20 6 -8 6 -37 13 -65 15 -27 3 -58 9 -69 15 -10
5 -37 18 -60 27 -24 10 -43 21 -43 26 0 4 -7 8 -15 8 -9 0 -15 9 -15 23 1 20
2 21 14 5 7 -10 21 -18 30 -18z m-2604 5 c0 -8 -4 -15 -10 -15 -5 0 -10 7 -10
15 0 8 5 15 10 15 6 0 10 -7 10 -15z m3060 -4 c0 -5 -6 -14 -14 -20 -12 -10
-13 -8 -9 8 5 21 23 30 23 12z m23 -10 c-4 -16 1 -19 32 -19 20 0 39 -3 42 -6
4 -3 -3 -6 -15 -6 -11 0 -23 -4 -27 -10 -7 -12 -50 4 -49 19 1 6 2 18 3 26 0
8 5 15 10 15 5 0 7 -9 4 -19z m-2113 -1 c0 -5 -7 -10 -16 -10 -8 0 -12 5 -9
10 3 6 10 10 16 10 5 0 9 -4 9 -10z m2277 -17 c-15 -16 -17 -16 -17 -1 0 9 6
18 13 21 20 7 22 -2 4 -20z m-60 -15 c-3 -7 -5 -2 -5 12 0 14 2 19 5 13 2 -7
2 -19 0 -25z m-6477 -18 c0 -5 -7 -10 -15 -10 -8 0 -15 5 -15 10 0 6 7 10 15
10 8 0 15 -4 15 -10z m3640 -42 c-22 -18 -100 -26 -100 -10 0 12 69 32 86 25
8 -3 17 3 21 13 5 13 8 14 11 4 3 -7 -5 -22 -18 -32z m70 34 c0 -4 -9 -8 -20
-9 -11 -1 -20 2 -20 5 0 4 9 8 20 9 11 1 20 -2 20 -5z m-372 -50 c2 -24 0 -31
-11 -26 -16 6 -19 66 -3 61 6 -2 12 -18 14 -35z m561 9 c-15 -5 -22 6 -14 19
6 9 10 9 16 -1 5 -8 4 -15 -2 -18z m281 5 c0 -3 -4 -8 -10 -11 -5 -3 -10 -1
-10 4 0 6 5 11 10 11 6 0 10 -2 10 -4z m2126 -6 c8 0 14 -6 14 -14 0 -17 -41
-18 -52 -1 -13 17 -9 27 8 21 9 -3 22 -6 30 -6z m-3006 -10 c0 -5 -5 -10 -11
-10 -5 0 -7 5 -4 10 3 6 8 10 11 10 2 0 4 -4 4 -10z m540 0 c0 -13 -28 -25
-38 -16 -3 4 0 11 8 16 20 13 30 12 30 0z m2405 0 c-3 -5 -10 -10 -16 -10 -5
0 -9 5 -9 10 0 6 7 10 16 10 8 0 12 -4 9 -10z m110 -10 c3 -5 1 -10 -4 -10 -6
0 -11 5 -11 10 0 6 2 10 4 10 3 0 8 -4 11 -10z m-2435 -20 c0 -6 -15 -16 -34
-24 -18 -8 -37 -19 -40 -25 -4 -6 -16 -11 -27 -11 -10 0 -19 -6 -19 -14 0 -17
-62 -48 -74 -36 -12 12 2 30 25 30 10 0 19 5 19 11 0 17 40 49 60 49 10 0 20
6 23 14 9 23 67 28 67 6z m2500 0 c0 -4 10 -10 23 -14 18 -5 19 -8 8 -15 -10
-7 -19 -4 -28 7 -7 9 -13 13 -13 8 0 -10 -30 13 -30 24 0 5 9 6 20 3 11 -3 20
-9 20 -13z m-4309 -17 c-12 -20 -14 -14 -5 12 4 9 9 14 11 11 3 -2 0 -13 -6
-23z m1374 17 c-3 -5 -13 -10 -21 -10 -8 0 -14 5 -14 10 0 6 9 10 21 10 11 0
17 -4 14 -10z m2049 -21 c9 7 17 5 27 -7 14 -16 13 -20 -7 -35 -31 -23 -55 -3
-46 38 4 21 7 24 10 12 3 -13 7 -15 16 -8z m-1455 -8 c9 -6 10 -11 2 -15 -13
-8 -31 1 -31 15 0 11 11 11 29 0z m1301 -12 c0 -24 -16 -33 -24 -12 -11 27
-36 -6 -43 -55 -3 -23 -12 -47 -19 -53 -20 -16 -19 -115 0 -122 22 -9 31 31
12 52 -20 22 -20 31 -1 31 8 0 19 9 24 19 13 23 82 27 74 4 -3 -7 2 -13 11
-13 9 0 16 6 16 13 0 8 3 8 9 -2 17 -27 41 6 41 55 0 46 14 59 25 22 4 -11 19
-32 33 -45 14 -12 20 -23 14 -23 -6 0 -18 -15 -27 -34 -12 -25 -26 -37 -48
-42 -17 -3 -37 -13 -45 -20 -7 -8 -22 -14 -33 -14 -11 0 -19 -7 -19 -17 -1
-23 -37 -66 -49 -59 -17 11 -20 -9 -5 -40 16 -32 6 -84 -16 -84 -5 0 -10 -4
-10 -10 0 -9 -21 -34 -73 -89 -12 -13 -50 -48 -84 -78 -59 -52 -65 -55 -128
-59 -53 -4 -72 -2 -93 13 -15 9 -31 16 -37 14 -15 -4 -85 21 -85 31 0 4 -7 8
-15 8 -9 0 -18 6 -21 14 -3 8 -19 20 -35 27 -20 8 -37 27 -51 55 -11 24 -26
44 -34 44 -8 0 -14 8 -14 18 0 9 -9 28 -20 42 -15 20 -21 23 -31 13 -17 -17
-29 -16 -29 2 0 9 -7 27 -16 40 -9 14 -14 34 -11 45 3 11 -1 27 -9 34 -16 16
-19 36 -5 36 4 0 7 12 5 28 l-4 27 11 -28 c10 -26 12 -27 26 -10 10 13 16 15
19 6 3 -7 13 -13 22 -13 10 0 24 -10 31 -22 l14 -23 13 30 c7 17 10 40 8 51
-4 17 2 25 25 37 33 16 39 9 20 -22 -9 -13 -9 -26 -1 -49 9 -25 8 -38 -3 -59
-8 -16 -15 -38 -15 -50 0 -12 -4 -33 -10 -47 -6 -16 -6 -27 1 -31 16 -10 70
-9 77 2 4 5 15 12 25 16 22 8 22 27 1 27 -13 0 -14 3 -4 15 7 8 10 27 7 42 -3
15 -1 37 3 49 7 18 16 21 62 20 42 -1 53 -5 56 -18 2 -12 -3 -18 -15 -18 -16
-1 -15 -3 6 -20 14 -13 21 -27 18 -39 -2 -10 3 -24 12 -30 11 -8 16 -26 15
-54 -1 -76 -2 -79 -24 -72 -17 5 -20 2 -20 -27 0 -18 -3 -44 -7 -57 -5 -19 -3
-22 8 -15 8 4 24 7 36 6 17 -3 20 1 16 17 -4 15 -1 21 11 21 9 0 16 -7 16 -15
0 -8 7 -15 15 -15 8 0 15 -4 15 -10 0 -5 14 -10 30 -10 24 0 30 4 30 21 0 12
7 27 15 33 18 13 31 116 15 116 -5 0 -10 7 -10 15 0 18 -36 20 -43 3 -2 -7 -7
-10 -11 -7 -8 8 -9 64 -2 126 3 24 1 45 -4 48 -13 8 52 104 66 98 7 -2 22 5
33 16 18 18 25 19 46 9 27 -12 31 -24 15 -48 -9 -13 -13 -11 -29 9 l-18 24 -5
-27 c-3 -14 1 -34 8 -43 16 -21 18 -65 4 -79 -6 -6 -3 -19 8 -35 14 -22 21
-25 42 -17 20 7 22 11 10 18 -12 8 -9 10 10 10 17 0 29 8 37 25 6 14 7 25 2
25 -6 0 -5 8 1 20 8 15 6 29 -10 61 l-21 41 37 34 c25 24 36 44 36 62 0 36 22
59 58 59 22 0 30 -5 30 -18z m-1365 -19 c-3 -5 -10 -10 -16 -10 -5 0 -9 5 -9
10 0 6 7 10 16 10 8 0 12 -4 9 -10z m-345 -9 c0 -12 -20 -25 -27 -18 -7 7 6
27 18 27 5 0 9 -4 9 -9z m1996 -71 c-2 -25 -5 -53 -5 -62 -1 -22 -21 -24 -21
-3 0 8 -6 15 -14 15 -20 0 -36 23 -27 38 4 7 14 12 22 10 10 -2 14 7 15 32 1
53 3 57 19 35 10 -13 14 -34 11 -65z m-2352 49 c-3 -5 -10 -7 -15 -3 -5 3 -7
10 -3 15 3 5 10 7 15 3 5 -3 7 -10 3 -15z m251 11 c7 -11 4 -12 -37 -14 -21
-2 -25 1 -16 11 12 15 44 17 53 3z m-678 -22 c-3 -8 -6 -5 -6 6 -1 11 2 17 5
13 3 -3 4 -12 1 -19z m382 9 c6 -8 8 -17 4 -20 -11 -12 -23 -8 -23 8 0 9 -6
12 -15 9 -8 -4 -15 -1 -15 5 0 15 35 14 49 -2z m706 -3 c-9 -9 -19 -13 -23
-10 -3 4 0 11 8 16 24 15 33 11 15 -6z m1454 -12 c-10 -17 -10 -24 1 -39 8
-10 2 -7 -13 6 -15 14 -27 29 -27 35 0 6 4 5 9 -3 7 -11 11 -9 21 9 6 12 14
20 17 17 2 -3 -1 -14 -8 -25z m-1767 -16 c10 -7 15 -15 12 -18 -10 -10 -44 4
-44 18 0 17 10 17 32 0z m2134 -14 c-2 -1 0 -20 5 -40 11 -48 -15 -109 -37
-87 -8 7 -11 22 -8 32 6 16 5 15 -9 -2 -9 -11 -17 -29 -17 -39 0 -15 -3 -17
-11 -9 -8 8 -7 20 5 44 20 40 20 38 -3 32 -27 -7 -33 11 -11 35 12 13 27 18
40 15 19 -5 20 -2 14 22 -6 25 -5 26 14 14 12 -7 20 -15 18 -17z m-2886 14 c0
-3 -4 -8 -10 -11 -5 -3 -10 -1 -10 4 0 6 5 11 10 11 6 0 10 -2 10 -4z m1010
-3 c-1 -19 -29 -43 -51 -43 -23 1 -24 1 -4 15 11 8 25 19 30 24 12 12 25 14
25 4z m-533 -25 c-3 -8 -6 -5 -6 6 -1 11 2 17 5 13 3 -3 4 -12 1 -19z m1043
14 c0 -5 -7 -17 -16 -28 -14 -17 -15 -17 -10 -1 3 10 6 23 6 28 0 5 5 9 10 9
6 0 10 -4 10 -8z m1879 -13 c13 -11 22 -22 19 -25 -10 -9 -58 16 -58 31 0 20
10 19 39 -6z m-2829 7 c0 -3 -4 -8 -10 -11 -5 -3 -10 -1 -10 4 0 6 5 11 10 11
6 0 10 -2 10 -4z m47 -18 c-3 -8 -6 -5 -6 6 -1 11 2 17 5 13 3 -3 4 -12 1 -19z
m1102 -10 c19 -32 9 -45 -22 -31 -53 26 -60 25 -55 -6 3 -19 0 -32 -9 -35 -9
-4 -13 5 -13 29 0 18 -5 37 -12 41 -19 12 20 32 60 30 28 -1 40 -7 51 -28z
m1486 -9 c11 -17 -1 -21 -15 -4 -8 9 -8 15 -2 15 6 0 14 -5 17 -11z m-2793
-14 c0 -5 -5 -11 -11 -13 -6 -2 -11 4 -11 13 0 9 5 15 11 13 6 -2 11 -8 11
-13z m485 -2 c4 -10 -26 -27 -34 -20 -2 2 -1 12 3 21 7 18 25 17 31 -1z m-82
-34 c11 -17 -1 -21 -15 -4 -8 9 -8 15 -2 15 6 0 14 -5 17 -11z m475 -15 c0
-23 3 -25 24 -20 18 4 25 1 29 -14 3 -11 10 -20 16 -20 14 0 14 17 1 25 -5 3
-10 11 -10 16 0 5 11 2 24 -6 15 -10 27 -12 30 -6 6 9 66 -14 66 -25 0 -18
-28 -29 -68 -25 -24 2 -47 -1 -51 -5 -3 -5 -15 -14 -25 -20 -32 -17 -41 -39
-28 -68 9 -21 19 -26 48 -26 31 0 36 -3 31 -20 -3 -11 0 -18 7 -17 6 1 11 -4
10 -10 -1 -7 -2 -24 -2 -37 -2 -23 -40 -44 -52 -28 -8 12 -53 42 -63 42 -5 0
-4 -7 4 -16 10 -12 10 -20 1 -34 -7 -12 -8 -21 -2 -25 6 -3 10 -2 10 3 0 5 7
9 15 9 8 0 15 -6 15 -13 0 -6 7 -14 15 -18 8 -3 15 -1 15 5 0 5 6 9 13 8 23
-3 40 1 34 8 -7 6 21 32 36 33 14 0 6 -22 -14 -39 l-22 -17 27 -29 c14 -15 26
-31 26 -36 0 -13 -22 -22 -29 -12 -3 6 -15 13 -27 17 -16 5 -23 1 -31 -16
l-11 -23 -7 27 c-6 25 -18 33 -79 49 -20 5 -34 3 -43 -7 -13 -12 -18 -11 -43
6 -15 11 -32 20 -38 20 -5 0 -20 8 -33 19 -13 10 -27 19 -31 20 -4 2 -30 12
-58 24 -39 16 -50 26 -50 44 0 27 27 43 73 43 27 0 36 -5 45 -26 9 -18 18 -24
35 -22 12 2 21 9 20 15 -1 6 4 17 12 23 24 20 19 -13 -5 -35 -24 -22 -26 -40
-4 -31 8 3 24 1 34 -4 14 -8 26 -7 42 2 45 25 51 53 13 62 -18 5 -25 13 -25
30 0 14 -5 26 -10 28 -30 10 -15 128 16 128 8 0 14 9 14 20 0 11 7 20 15 20 9
0 18 7 21 15 10 24 24 17 24 -11z m2070 -4 c0 -5 -2 -10 -4 -10 -3 0 -8 5 -11
10 -3 6 -1 10 4 10 6 0 11 -4 11 -10z m-1805 -38 c-8 -9 -35 20 -28 31 4 6 11
3 19 -8 8 -10 12 -21 9 -23z m-822 21 c-7 -2 -19 -2 -25 0 -7 3 -2 5 12 5 14
0 19 -2 13 -5z m2456 -25 c1 15 31 16 31 1 0 -16 -56 -69 -74 -69 -24 0 -20
42 6 70 21 22 22 22 29 4 4 -10 8 -13 8 -6z m-409 -23 c-25 -26 -40 -32 -40
-15 0 6 7 10 15 10 9 0 12 6 9 15 -4 11 1 15 17 15 l22 0 -23 -25z m236 19
c15 -4 20 -11 17 -25 -5 -18 -4 -18 23 -5 30 16 44 13 44 -10 0 -11 -6 -13
-20 -9 -15 5 -21 0 -26 -19 -3 -14 -12 -26 -19 -26 -7 0 -28 -15 -47 -32 -51
-50 -93 -85 -118 -98 -20 -11 -22 -10 -17 3 3 9 1 18 -6 21 -9 3 -8 8 3 15 16
12 12 13 -37 14 -13 0 -23 6 -23 14 0 8 -4 11 -10 8 -14 -9 -12 -42 3 -48 8
-3 6 -11 -8 -27 l-20 -23 23 12 c15 8 22 8 22 1 0 -6 7 -10 16 -8 33 6 24 -21
-15 -47 -39 -26 -40 -27 -76 -9 -31 14 -41 15 -57 5 -11 -7 -22 -10 -25 -7 -3
3 2 8 11 12 9 3 16 12 16 20 0 8 9 14 21 14 11 0 17 5 14 10 -10 16 6 34 16
19 7 -10 8 -5 5 13 -3 19 3 35 20 53 13 14 24 33 24 43 0 12 3 13 12 4 17 -17
74 -15 92 4 19 19 20 36 4 52 -7 7 -8 12 -2 12 5 0 2 5 -6 10 -25 16 2 35 30
20 14 -7 25 -8 33 -2 10 8 28 15 57 21 3 0 15 -2 26 -5z m-1486 -29 c14 -17
50 -20 50 -4 0 5 5 7 10 4 12 -8 13 -25 1 -44 -7 -12 -13 -12 -40 0 -17 8 -31
17 -31 21 0 5 -7 8 -15 8 -9 0 -12 6 -9 15 4 8 10 15 14 15 4 0 13 -7 20 -15z
m1343 -46 c-8 -8 -16 -8 -30 0 -16 9 -14 10 12 11 21 0 26 -3 18 -11z m-1540
-5 c3 -3 3 -13 0 -21 -5 -12 -7 -12 -14 -1 -15 23 -4 40 14 22z m2007 -1 c0
-5 -11 -9 -25 -9 -14 -1 -25 2 -25 7 0 5 11 9 25 9 14 0 25 -3 25 -7z m-147
-38 c22 -4 27 -11 27 -34 0 -25 -5 -30 -30 -35 -16 -3 -44 -9 -61 -12 l-31 -6
41 -19 c22 -10 41 -22 41 -28 0 -11 -66 -35 -78 -28 -4 3 -23 2 -42 -2 -34 -7
-33 -8 38 -25 80 -20 112 -43 44 -32 -26 4 -42 2 -42 -4 0 -5 7 -10 15 -10 24
0 65 -22 65 -36 0 -8 -18 -12 -52 -12 -80 -1 -104 -3 -90 -9 6 -2 12 -10 12
-17 0 -21 54 -64 95 -75 22 -6 49 -18 59 -26 18 -14 15 -14 -35 -10 -39 4 -64
1 -85 -10 -40 -21 -49 -19 -70 12 -13 20 -19 24 -22 13 -11 -33 -53 -56 -149
-85 -35 -10 -63 -22 -63 -27 0 -13 241 8 250 22 9 15 50 -27 50 -52 0 -18 2
-20 10 -8 9 13 11 13 19 0 5 -8 7 -18 5 -22 -3 -4 0 -8 6 -8 6 0 8 10 4 25 -4
15 -2 25 5 25 17 0 13 28 -6 39 -31 17 -1 29 55 22 58 -8 95 -31 49 -31 -28 0
-89 -51 -69 -58 7 -2 20 4 29 14 17 17 18 17 21 -10 4 -33 -12 -56 -37 -49
-27 7 -46 -22 -33 -50 5 -12 13 -30 16 -39 3 -10 12 -18 21 -18 11 0 15 -10
15 -35 0 -31 3 -35 25 -35 14 0 29 8 35 20 11 21 40 28 40 10 0 -17 -41 -52
-55 -47 -14 6 -29 -71 -18 -99 9 -25 -19 -12 -33 14 -10 20 -12 20 -39 6 -21
-11 -30 -12 -36 -3 -4 7 -11 -3 -18 -24 -11 -33 -14 -35 -32 -24 -17 10 -22 9
-31 -6 -9 -18 -11 -18 -34 4 l-24 22 -1 -34 c-2 -30 -2 -31 -6 -6 -2 15 -10
27 -18 27 -7 0 -20 3 -29 6 -12 5 -16 -1 -17 -22 l-1 -29 -7 30 c-5 24 -8 26
-13 13 -4 -10 -5 -25 -2 -33 3 -8 -1 -24 -10 -37 -16 -22 -16 -21 -16 22 0 25
-4 41 -8 35 -10 -15 -32 -17 -32 -3 0 6 -8 4 -19 -6 -15 -13 -20 -14 -24 -4
-3 7 -6 4 -6 -8 -1 -32 -22 -84 -33 -84 -6 0 -8 11 -6 25 4 20 3 23 -8 14 -13
-11 -18 -6 -15 14 0 4 -8 16 -19 27 -20 20 -20 20 -20 -4 0 -82 -67 -131 -71
-51 0 13 -4 10 -10 -11 -7 -25 -15 -33 -41 -37 -18 -2 -38 -1 -44 4 -7 6 -16
4 -24 -6 -17 -21 -118 -20 -148 1 -23 16 -30 6 -10 -14 9 -9 4 -12 -26 -12
-32 0 -36 2 -27 14 15 17 5 24 -32 22 -37 -2 -33 28 5 32 24 3 45 28 33 40 -3
3 -5 1 -5 -5 0 -5 -14 -9 -31 -8 -33 2 -38 -5 -43 -51 -3 -23 -9 -30 -32 -35
l-29 -6 35 -4 c33 -4 31 -5 -25 -18 -33 -7 -70 -18 -81 -23 -26 -12 -67 -1
-61 16 3 7 -2 28 -10 47 -13 30 -15 32 -25 16 -5 -10 -7 -33 -4 -51 5 -25 3
-33 -9 -33 -8 0 -15 9 -15 19 0 11 -7 18 -18 18 -10 0 -24 6 -31 13 -10 10
-15 8 -26 -6 -12 -16 -14 -15 -25 15 -7 18 -14 28 -16 22 -6 -15 -56 -5 -72
15 -11 14 -12 13 -3 -6 13 -26 4 -33 -41 -33 -18 0 -48 0 -66 0 -24 0 -35 -5
-40 -21 -7 -19 -9 -19 -21 -5 -16 20 -42 21 -35 2 3 -8 -4 -16 -18 -19 -13 -4
-24 -2 -26 3 -2 5 -9 7 -17 4 -8 -3 -16 4 -21 18 -7 22 -7 22 -15 3 -4 -11 -8
-14 -8 -7 -1 18 -51 15 -73 -5 -18 -16 -18 -16 -12 3 7 18 7 18 -13 2 -23 -21
-33 -23 -33 -6 0 14 -60 68 -76 68 -5 0 -15 -5 -22 -12 -9 -9 -12 -7 -12 10 0
13 -6 25 -14 28 -8 3 -12 12 -9 21 4 11 1 14 -13 11 -13 -2 -20 -13 -22 -36
-2 -18 -8 -30 -13 -26 -5 3 -7 10 -3 15 3 5 1 16 -6 24 -7 8 -7 16 -1 19 5 3
7 16 3 28 -3 14 -1 19 6 14 11 -7 32 22 32 45 0 8 -7 5 -20 -6 -17 -16 -20
-16 -20 -2 0 8 6 17 12 19 9 3 8 9 -5 22 -9 10 -17 20 -17 22 0 9 45 -8 52
-20 4 -6 8 2 8 17 0 18 -4 26 -11 21 -8 -4 -9 4 -4 27 4 19 12 37 16 40 14 8
-2 69 -17 69 -16 0 -19 26 -5 35 5 3 13 1 16 -5 5 -8 11 -7 22 1 12 10 16 10
24 -2 6 -9 7 -3 3 19 l-6 32 43 0 c62 0 189 31 189 47 0 16 -12 17 -28 1 -9
-9 -12 -9 -12 1 0 9 -8 11 -25 7 -24 -6 -55 -9 -182 -20 -33 -3 -43 0 -43 11
0 8 8 17 19 20 10 2 24 15 31 29 7 13 17 21 22 18 4 -3 8 -1 8 5 0 7 8 7 27 0
32 -12 190 -10 215 3 9 4 19 4 22 -1 3 -5 17 -11 31 -14 19 -3 25 -1 21 9 -7
17 -4 17 29 2 14 -6 25 -15 25 -20 0 -5 5 -6 10 -3 15 9 12 25 -4 25 -8 0 -17
7 -20 16 -5 13 -15 15 -49 10 -23 -3 -72 -9 -109 -12 -58 -6 -68 -4 -68 9 0 9
8 21 18 26 15 9 14 10 -7 11 -13 0 -40 -4 -60 -10 -77 -20 -281 -52 -297 -46
-26 10 -3 29 58 48 185 57 212 67 188 69 -14 1 -32 1 -40 0 -8 -1 -35 -4 -60
-6 -25 -2 -57 -7 -72 -11 -35 -8 -59 1 -52 20 8 20 87 50 112 42 11 -4 23 -3
26 3 7 10 126 11 126 0 0 -4 12 -10 26 -13 21 -6 24 -9 14 -21 -14 -16 -14
-17 15 -20 137 -15 147 -19 125 -41 -6 -6 15 -8 61 -6 76 5 113 -10 69 -26
l-24 -9 22 -12 c14 -8 22 -8 22 -1 0 5 8 10 18 10 16 -1 16 -2 -1 -15 -13 -9
-17 -20 -12 -35 5 -17 10 -19 21 -9 8 6 14 19 14 29 0 12 11 20 31 24 47 9 59
7 53 -7 -4 -10 3 -12 26 -9 25 4 30 1 30 -17 0 -11 5 -21 10 -21 6 0 10 7 10
15 0 16 8 17 143 20 43 1 80 -2 83 -6 3 -5 16 -4 29 1 32 12 53 4 57 -22 7
-48 69 -48 76 0 3 18 9 21 40 19 34 -2 37 0 37 27 0 26 4 30 54 43 30 7 66 14
80 15 14 1 32 10 39 20 9 12 26 18 55 18 23 0 64 7 91 15 29 9 64 13 83 9 26
-5 33 -3 33 10 0 9 -7 19 -15 22 -23 9 -9 22 33 29 44 7 97 34 70 35 -21 0
-23 16 -5 33 29 29 112 77 124 73 7 -3 13 -2 13 3 0 8 48 23 79 25 8 1 16 6
18 13 3 8 -6 9 -34 2 -21 -5 -42 -9 -47 -9 -15 0 17 31 48 47 17 8 40 24 51
34 29 26 74 47 93 43 9 -1 29 -5 45 -9z m-508 -84 c3 -5 1 -12 -5 -16 -5 -3
-10 1 -10 9 0 18 6 21 15 7z m-925 -56 c0 -8 -7 -15 -15 -15 -16 0 -20 12 -8
23 11 12 23 8 23 -8z m1845 -16 c10 -15 -1 -23 -20 -15 -9 3 -13 10 -10 16 8
13 22 13 30 -1z m149 -71 c-9 -14 -34 -9 -34 6 0 8 -3 22 -6 30 -4 12 1 10 19
-6 14 -12 23 -26 21 -30z m-2764 32 c0 -5 -4 -10 -10 -10 -5 0 -10 5 -10 10 0
6 5 10 10 10 6 0 10 -4 10 -10z m1663 -40 c-4 -14 1 -26 13 -35 18 -13 17 -14
-9 -26 -29 -13 -48 -6 -30 12 6 6 9 18 6 25 -6 17 3 44 16 44 5 0 7 -9 4 -20z
m-1788 0 c3 -5 1 -10 -4 -10 -6 0 -11 5 -11 10 0 6 2 10 4 10 3 0 8 -4 11 -10z
m238 -21 c98 -4 106 -29 12 -39 -79 -9 -125 -2 -125 19 0 26 20 42 40 31 9 -5
42 -10 73 -11z m2220 4 c9 -3 17 -14 17 -24 0 -21 -25 -16 -34 7 -3 8 -12 14
-21 14 -8 0 -15 5 -15 11 0 7 7 8 18 4 9 -4 25 -10 35 -12z m-712 -36 c-8 -8
-11 -7 -11 4 0 20 13 34 18 19 3 -7 -1 -17 -7 -23z m1107 0 c10 -8 16 -7 23 4
6 10 9 7 9 -13 0 -18 5 -28 15 -28 8 0 15 -4 15 -9 0 -19 60 -34 96 -23 32 9
34 9 34 -13 0 -19 -4 -21 -26 -17 -14 2 -29 0 -33 -6 -4 -6 -24 -7 -56 -2 -27
4 -84 7 -126 6 -67 -1 -74 1 -57 13 11 7 49 16 84 19 62 5 64 5 48 23 -10 11
-25 19 -36 19 -10 0 -18 4 -18 9 0 5 -9 13 -20 16 -11 3 -20 11 -20 16 0 11
49 1 68 -14z m-2185 -31 c6 -8 10 -7 14 2 7 17 23 15 23 -3 0 -8 6 -15 14 -15
17 0 25 -18 18 -42 -4 -17 -23 -26 -21 -10 5 32 -34 63 -54 43 -18 -18 -57
-13 -57 7 0 37 40 48 63 18z m1683 10 c25 -19 9 -36 -39 -42 -45 -5 -58 13
-27 38 27 22 40 23 66 4z m731 -11 c15 -13 24 -27 20 -31 -4 -4 -7 -2 -7 5 0
7 -5 9 -10 6 -13 -8 -40 13 -40 31 0 20 7 18 37 -11z m-3361 -24 c-3 -5 1 -11
9 -15 30 -11 16 -27 -19 -21 -24 5 -36 3 -42 -8 -10 -15 -54 -33 -54 -21 0 14
52 54 71 54 10 0 19 5 19 10 0 6 5 10 11 10 5 0 8 -4 5 -9z m204 -31 c0 -5 -4
-10 -10 -10 -5 0 -10 5 -10 10 0 6 5 10 10 10 6 0 10 -4 10 -10z m2790 -20 c0
-5 -5 -10 -11 -10 -5 0 -7 5 -4 10 3 6 8 10 11 10 2 0 4 -4 4 -10z m383 -36
c-7 -19 -23 -7 -23 18 0 17 3 18 14 8 8 -6 12 -18 9 -26z m-603 5 c0 -6 -4 -7
-10 -4 -5 3 -10 11 -10 16 0 6 5 7 10 4 6 -3 10 -11 10 -16z m-2890 -11 c0
-16 -3 -19 -11 -11 -6 6 -8 16 -5 22 11 17 16 13 16 -11z m150 0 c0 -9 4 -8
10 2 8 12 10 12 10 1 0 -15 -97 -111 -112 -111 -5 0 -8 8 -7 18 3 33 -1 35
-24 14 -20 -19 -23 -20 -24 -4 -2 21 93 86 101 68 4 -7 10 -5 18 7 15 20 28
22 28 5z m130 -18 c0 -11 -7 -20 -15 -20 -18 0 -19 12 -3 28 16 16 18 15 18
-8z m3295 10 c8 -13 -5 -13 -25 0 -13 8 -13 10 2 10 9 0 20 -4 23 -10z m-118
-50 c22 -16 56 -30 74 -32 31 -3 89 -43 89 -61 0 -4 -4 -5 -10 -2 -5 3 -10 -3
-10 -14 0 -26 -15 -27 -29 -3 -9 15 -10 15 -11 -5 0 -13 -3 -23 -7 -23 -13 0
-39 20 -27 20 19 0 24 26 11 54 -15 33 -25 33 -37 1 -13 -33 -32 -33 -24 0 5
20 3 24 -9 20 -12 -5 -97 65 -97 81 0 11 46 -8 87 -36z m97 24 c23 -9 20 -23
-4 -17 -11 3 -20 9 -20 14 0 11 3 11 24 3z m-154 -54 c0 -5 -4 -10 -10 -10 -5
0 -10 5 -10 10 0 6 5 10 10 10 6 0 10 -4 10 -10z m-2752 -20 c-7 -11 -16 -16
-21 -11 -12 12 0 31 19 31 12 0 12 -3 2 -20z m-658 0 c0 -5 -4 -10 -10 -10 -5
0 -10 5 -10 10 0 6 5 10 10 10 6 0 10 -4 10 -10z m2800 -2 c0 -22 -17 -41 -29
-34 -15 10 -14 33 2 39 21 9 27 8 27 -5z m-3030 -7 c0 -5 -7 -14 -15 -21 -12
-10 -15 -10 -15 2 0 8 3 18 7 21 9 10 23 9 23 -2z m536 -18 c-10 -10 -19 5
-10 18 6 11 8 11 12 0 2 -7 1 -15 -2 -18z m-271 -23 c-3 -5 -10 -10 -16 -10
-5 0 -9 5 -9 10 0 6 7 10 16 10 8 0 12 -4 9 -10z m610 0 c3 -5 -1 -10 -9 -10
-9 0 -16 5 -16 10 0 6 4 10 9 10 6 0 13 -4 16 -10z m-635 -17 c0 -5 25 -7 55
-6 61 1 80 -12 40 -27 -39 -15 -75 -13 -75 5 0 14 -4 13 -32 -1 -18 -9 -44
-25 -57 -36 -31 -23 -37 -17 -16 16 22 33 85 69 85 49z m3486 -13 c8 0 14 -7
14 -16 0 -10 -6 -14 -15 -10 -20 7 -19 -3 3 -39 18 -29 82 -187 82 -201 0 -20
-40 33 -42 55 -1 14 -4 -1 -8 -34 l-7 -60 -2 70 c-1 39 -8 81 -16 95 -8 14
-15 36 -15 50 -1 22 -2 23 -9 6 -4 -11 -4 -42 1 -69 5 -27 7 -56 5 -65 -3 -10
-5 -6 -6 9 -1 28 -28 99 -37 99 -3 0 -2 -26 1 -57 4 -32 2 -76 -3 -98 l-10
-40 -1 42 c-2 76 -26 103 -28 31 -1 -23 -6 -44 -11 -47 -5 -3 -11 -13 -14 -21
-3 -8 -9 7 -13 33 -6 39 -13 51 -36 63 -26 13 -29 13 -29 -1 0 -9 -9 -25 -20
-37 l-20 -22 0 23 c0 12 -4 20 -9 17 -16 -10 -21 25 -6 41 13 13 18 13 32 1
15 -12 16 -10 9 15 -5 20 -3 27 9 27 11 0 15 11 15 42 0 44 15 43 23 -2 4 -22
4 -21 6 6 2 48 42 55 54 9 4 -18 5 -18 6 3 1 12 7 22 16 22 17 0 21 35 5 45
-20 12 3 27 32 21 17 -3 37 -6 44 -6z m-3635 -14 c-17 -20 -51 -27 -51 -11 0
15 15 23 44 24 15 1 16 -2 7 -13z m429 -7 c0 -5 -4 -9 -10 -9 -5 0 -10 7 -10
16 0 8 5 12 10 9 6 -3 10 -10 10 -16z m3011 -6 c5 -15 3 -23 -7 -27 -9 -3 -14
1 -14 12 0 10 -6 24 -12 31 -11 10 -9 12 6 9 10 -1 22 -13 27 -25z m83 11 c9
-24 7 -27 -9 -10 -17 17 -19 26 -6 26 5 0 12 -7 15 -16z m-3208 -31 c-2 -9 -7
-18 -13 -20 -6 -2 -8 7 -6 21 6 28 23 27 19 -1z m2574 17 c21 -11 34 -55 22
-77 -7 -12 -11 -9 -20 17 -9 24 -16 31 -28 26 -12 -5 -15 -2 -10 10 3 8 6 20
6 25 0 12 7 11 30 -1z m851 -42 c32 -40 32 -41 6 -23 -15 9 -27 24 -27 31 0 8
-4 14 -10 14 -5 0 -10 5 -10 10 0 17 7 12 41 -32z m-3588 17 c-3 -9 -8 -14
-10 -11 -3 3 -2 9 2 15 9 16 15 13 8 -4z m3524 -22 c-3 -10 -5 -4 -5 12 0 17
2 24 5 18 2 -7 2 -21 0 -30z m-3397 9 c0 -19 -35 -41 -50 -31 -13 8 -12 12 4
24 22 16 46 20 46 7z m-155 -12 c-3 -5 -12 -10 -18 -10 -7 0 -6 4 3 10 19 12
23 12 15 0z m3092 -27 c-3 -10 -5 -4 -5 12 0 17 2 24 5 18 2 -7 2 -21 0 -30z
m-3167 17 c0 -5 -5 -10 -11 -10 -5 0 -7 5 -4 10 3 6 8 10 11 10 2 0 4 -4 4
-10z m3674 -35 c7 -34 -7 -15 -19 25 -5 16 -4 22 3 15 5 -5 12 -23 16 -40z
m-3644 31 c0 -3 -4 -8 -10 -11 -5 -3 -10 -1 -10 4 0 6 5 11 10 11 6 0 10 -2
10 -4z m2922 -40 c-2 -5 -9 -1 -14 8 -5 9 -6 21 -2 28 9 14 25 -22 16 -36z
m438 22 c0 -19 -2 -20 -10 -8 -13 19 -13 30 0 30 6 0 10 -10 10 -22z m-3234
-15 c-10 -10 -19 5 -10 18 6 11 8 11 12 0 2 -7 1 -15 -2 -18z m3130 -21 c-12
-11 -18 7 -10 30 l8 23 4 -23 c2 -13 1 -26 -2 -30z m-2961 18 c-3 -5 -10 -10
-16 -10 -5 0 -9 5 -9 10 0 6 7 10 16 10 8 0 12 -4 9 -10z m2872 -12 c-3 -8 -6
-5 -6 6 -1 11 2 17 5 13 3 -3 4 -12 1 -19z m-2947 -29 c0 -10 -7 -19 -15 -19
-16 0 -19 9 -9 34 8 20 24 11 24 -15z m-114 -16 c-5 -5 -11 -2 -13 5 -3 6 -9
10 -14 6 -10 -6 -12 9 -2 20 4 3 14 0 22 -9 8 -8 11 -18 7 -22z m-53 20 c4 -3
2 -12 -5 -20 -6 -7 -8 -16 -5 -20 11 -10 88 -6 100 6 14 14 37 14 37 0 0 -5
-5 -7 -11 -4 -6 4 -17 -2 -25 -14 -9 -12 -19 -19 -24 -16 -4 3 -6 -5 -3 -16 6
-21 6 -21 22 -2 23 27 71 47 71 29 0 -8 -7 -17 -16 -20 -9 -3 -14 -12 -11 -20
3 -8 -1 -13 -10 -12 -24 2 -27 -21 -5 -28 18 -6 19 -10 9 -43 -6 -20 -24 -50
-39 -67 -16 -17 -24 -32 -19 -34 10 -3 -5 -59 -20 -76 -4 -5 -5 -14 -2 -22 2
-7 0 -21 -6 -31 -9 -15 -11 -13 -12 17 -2 52 -13 85 -30 88 -11 2 -15 -4 -15
-19 1 -12 -6 -24 -14 -27 -12 -4 -13 -3 -3 10 7 8 10 17 7 21 -9 9 6 68 16 62
12 -7 33 32 25 45 -3 6 -1 10 5 10 7 0 8 6 1 18 -6 12 -7 22 -1 28 9 9 2 9
-55 5 -12 -1 -12 -67 -1 -92 9 -21 -13 -36 -25 -18 -8 11 -12 10 -24 -5 -8
-11 -16 -31 -16 -45 -1 -24 -2 -24 -8 4 l-6 30 -18 -37 c-9 -20 -17 -43 -17
-51 0 -9 -4 -18 -9 -21 -13 -8 -2 75 12 94 6 8 0 6 -13 -5 -14 -11 -28 -24
-32 -30 -4 -5 -8 -7 -8 -2 0 9 47 83 77 120 23 28 32 64 14 53 -5 -4 -12 0
-15 6 -3 7 -3 3 0 -9 3 -13 1 -23 -5 -23 -6 0 -11 -8 -12 -17 0 -10 -3 -13 -5
-6 -4 8 -16 2 -35 -18 -30 -31 -38 -24 -17 14 10 20 10 21 -6 8 -30 -25 -58
-91 -51 -118 4 -19 2 -24 -7 -21 -9 4 -14 -5 -15 -28 -1 -18 -6 -41 -12 -51
-16 -28 -2 83 16 132 9 22 16 51 18 65 4 48 17 95 37 138 11 23 21 42 23 42 2
0 -3 -21 -11 -47 -13 -44 -19 -85 -7 -53 3 8 12 31 20 50 15 34 15 34 24 12 5
-13 6 -29 2 -34 -4 -7 -1 -8 6 -4 7 5 10 14 7 22 -3 8 6 26 19 40 22 24 30 24
26 2 -2 -12 27 -10 34 2 11 18 23 11 18 -10 -3 -11 -1 -20 5 -20 18 0 37 33
34 61 -3 27 6 37 21 22z m2877 -11 c0 -5 -7 -17 -15 -28 -15 -19 -20 -8 -9 20
6 17 24 22 24 8z m-40 -9 c0 -5 -5 -15 -10 -23 -8 -12 -10 -11 -10 8 0 12 5
22 10 22 6 0 10 -3 10 -7z m220 -28 c0 -34 -28 -89 -54 -105 l-21 -13 21 24
c13 15 25 45 29 77 7 51 25 64 25 17z m50 -45 c-18 -33 -29 -23 -18 18 17 63
22 69 26 35 2 -18 -2 -41 -8 -53z m600 52 c0 -15 -2 -15 -10 -2 -13 20 -13 33
0 25 6 -3 10 -14 10 -23z m-3460 -22 c0 -9 -31 -24 -42 -22 -5 1 -8 -3 -8 -9
0 -8 -4 -8 -14 1 -8 6 -12 18 -10 25 9 22 74 26 74 5z m25 10 c3 -5 1 -10 -4
-10 -6 0 -11 5 -11 10 0 6 2 10 4 10 3 0 8 -4 11 -10z m205 -5 c0 -8 -9 -15
-20 -15 -11 0 -20 7 -20 15 0 8 9 15 20 15 11 0 20 -7 20 -15z m-705 -5 c-3
-5 -10 -10 -16 -10 -5 0 -9 5 -9 10 0 6 7 10 16 10 8 0 12 -4 9 -10z m851 -4
c18 -19 18 -26 -1 -26 -8 0 -15 2 -15 4 0 2 -3 11 -6 20 -8 20 3 21 22 2z
m2321 -8 c-3 -8 -6 -5 -6 6 -1 11 2 17 5 13 3 -3 4 -12 1 -19z m-56 -31 c-13
-13 -15 1 -4 30 7 17 8 17 11 -1 2 -10 -1 -23 -7 -29z m-2443 -13 c-9 -18 -9
-27 0 -36 16 -16 15 -31 -2 -25 -7 3 -20 0 -27 -6 -10 -10 -11 -9 -2 3 6 8 14
34 18 58 4 23 11 40 16 37 4 -3 3 -17 -3 -31z m162 -2 c0 -5 -7 -17 -15 -28
-14 -18 -14 -17 -4 9 12 27 19 34 19 19z m2887 -24 c-3 -7 -5 -2 -5 12 0 14 2
19 5 13 2 -7 2 -19 0 -25z m-3272 -48 c-3 -5 -11 -10 -16 -10 -6 0 -7 5 -4 10
3 6 11 10 16 10 6 0 7 -4 4 -10z m2153 -12 c-6 -16 -36 -34 -44 -26 -3 4 -4
14 -1 23 7 17 51 21 45 3z m-1948 -34 c0 -14 -4 -23 -9 -20 -5 3 -7 15 -4 26
7 28 13 25 13 -6z m100 -4 c0 -11 -4 -20 -9 -20 -5 0 -7 9 -4 20 3 11 7 20 9
20 2 0 4 -9 4 -20z m100 -11 c0 -5 -4 -9 -10 -9 -5 0 -10 7 -10 16 0 8 5 12
10 9 6 -3 10 -10 10 -16z m2140 -22 c0 -21 -11 -48 -30 -74 -24 -33 -29 -46
-21 -65 9 -25 -1 -115 -19 -159 -9 -21 -7 -39 8 -85 51 -158 52 -207 5 -225
-14 -5 -33 -7 -43 -4 -14 5 -18 -3 -23 -45 -6 -51 8 -114 23 -105 12 7 60 -42
60 -60 0 -8 -5 -14 -12 -12 -6 1 -16 -16 -21 -38 -6 -22 -16 -45 -23 -53 -7
-7 -16 -29 -19 -50 -3 -20 -10 -45 -16 -54 -5 -10 -9 -28 -9 -40 0 -13 -12
-45 -26 -71 -24 -46 -35 -131 -20 -155 3 -5 -1 -32 -9 -58 -9 -27 -20 -83 -25
-124 -5 -41 -19 -95 -31 -120 -12 -25 -22 -51 -22 -57 0 -7 -4 -13 -9 -13 -4
0 -8 -6 -8 -14 0 -26 -41 -106 -60 -116 -10 -5 -28 -10 -39 -10 -12 0 -30 -9
-41 -20 -18 -18 -20 -33 -20 -145 0 -124 6 -143 32 -107 7 11 24 25 38 32 27
14 60 48 60 62 0 4 9 8 20 8 12 0 20 7 20 16 0 8 14 29 31 46 17 17 38 43 47
57 17 27 100 142 108 151 3 2 9 -2 14 -10 5 -8 12 -11 17 -7 4 5 1 12 -7 17
-12 7 -12 12 0 34 15 29 32 35 24 9 -4 -10 3 -4 15 12 25 36 45 91 37 104 -6
9 18 64 25 57 2 -2 5 13 5 33 1 20 11 52 23 71 11 19 21 41 21 48 0 13 21 67
41 105 5 10 7 22 3 28 -3 5 0 17 7 25 6 8 9 17 5 21 -3 4 4 17 16 31 13 13 22
25 21 28 -2 2 -3 13 -3 25 0 13 4 18 12 13 6 -4 8 -3 5 3 -3 5 5 31 18 58 14
27 25 55 25 63 0 7 9 25 20 39 11 14 20 33 20 43 0 9 9 25 20 35 10 9 18 20
18 24 -1 3 7 26 18 51 l21 45 12 -38 c13 -39 8 -73 -9 -62 -6 4 -10 -6 -10
-23 0 -16 -7 -35 -15 -42 -9 -7 -15 -29 -15 -51 0 -21 -5 -41 -11 -45 -6 -3
-8 -15 -6 -26 4 -14 2 -18 -9 -14 -10 4 -14 -3 -14 -24 0 -17 -5 -30 -11 -30
-11 0 -9 -16 7 -54 5 -14 4 -17 -4 -12 -7 4 -14 0 -18 -11 -3 -10 -12 -30 -20
-45 -8 -16 -13 -28 -9 -28 3 0 -2 -11 -11 -25 -9 -14 -14 -28 -10 -32 11 -11
-15 -32 -31 -26 -13 5 -15 2 -10 -17 3 -13 -1 -32 -9 -45 -13 -20 -13 -23 1
-28 8 -4 15 -16 15 -27 0 -28 -20 -26 -21 3 -1 13 -8 1 -18 -30 -9 -29 -20
-55 -24 -59 -4 -4 -7 -16 -7 -26 0 -10 -7 -18 -16 -18 -10 0 -13 -6 -10 -18 4
-12 -5 -28 -29 -51 -19 -18 -35 -38 -35 -44 0 -22 -65 -137 -77 -137 -7 0 -13
-9 -13 -21 0 -11 -12 -33 -27 -48 -16 -15 -34 -40 -42 -54 -8 -15 -18 -27 -23
-27 -4 0 -8 -9 -8 -20 0 -12 -5 -17 -13 -14 -15 5 -37 -17 -41 -41 -3 -17 -71
-85 -86 -85 -6 0 -10 5 -10 10 0 6 -4 10 -10 10 -5 0 -10 -9 -10 -20 0 -11
-12 -28 -27 -37 -16 -10 -36 -25 -46 -33 -10 -8 -21 -14 -25 -14 -12 3 -41
-99 -42 -151 l-2 -50 -13 30 c-16 33 -16 33 -20 -11 -2 -26 1 -31 15 -27 10 3
20 -2 23 -11 9 -24 -12 -174 -28 -207 -8 -15 -12 -34 -9 -42 3 -8 -2 -17 -10
-20 -20 -8 -20 8 -1 62 8 22 10 41 5 41 -6 0 -10 7 -10 16 0 8 -4 13 -8 10 -5
-3 -7 -18 -4 -34 2 -16 -1 -33 -7 -36 -6 -4 -11 -18 -11 -31 0 -13 -5 -25 -10
-27 -6 -2 -12 -17 -13 -33 -1 -17 -4 -32 -7 -35 -13 -13 -30 -52 -30 -69 0
-24 -48 -71 -72 -71 -14 0 -15 -5 -7 -32 5 -18 9 -39 9 -45 0 -17 -27 -17 -34
0 -5 9 -7 9 -12 0 -3 -7 -11 -10 -19 -7 -8 3 -16 -4 -20 -16 -4 -13 -12 -19
-21 -16 -8 3 -14 1 -14 -4 0 -6 -7 -10 -15 -10 -8 0 -15 -7 -15 -15 0 -8 -4
-15 -10 -15 -5 0 -10 5 -10 10 0 16 -19 11 -41 -11 -14 -14 -24 -18 -31 -11
-6 6 -21 7 -39 2 -17 -5 -29 -5 -29 1 0 5 -5 9 -11 9 -5 0 -8 -4 -5 -8 2 -4 1
-14 -5 -22 -7 -12 -9 -10 -9 8 0 13 -6 22 -15 22 -8 0 -15 -6 -15 -14 0 -15
-16 -16 -38 -2 -8 5 -21 1 -34 -11 -16 -14 -22 -15 -25 -5 -4 10 -9 9 -24 -4
-16 -15 -19 -15 -24 -2 -8 21 -85 23 -85 2 0 -8 -4 -14 -10 -14 -5 0 -10 10
-10 23 0 12 -3 17 -8 11 -8 -13 -82 -6 -82 8 0 5 -4 7 -9 4 -5 -3 -9 0 -8 7 1
33 -4 60 -10 54 -3 -4 -12 -2 -18 3 -9 8 -11 4 -7 -15 2 -14 2 -25 -1 -25 -11
0 -48 74 -43 87 3 8 2 12 -3 9 -10 -6 -41 36 -41 56 0 7 -6 25 -14 40 -8 14
-17 46 -20 70 -3 24 -10 44 -15 46 -4 1 -6 14 -3 27 2 14 0 25 -4 25 -15 0
-32 50 -44 124 -6 38 -13 73 -16 78 -3 5 -8 37 -10 71 -3 34 -13 109 -24 167
-10 58 -21 134 -24 170 -6 70 -32 171 -44 168 -17 -5 -70 23 -107 56 -22 20
-32 33 -22 30 11 -4 17 -1 17 7 0 18 -35 71 -42 64 -3 -3 -8 9 -12 27 -4 22
-9 29 -15 20 -8 -14 -41 118 -41 167 0 15 -7 43 -16 60 -10 20 -14 46 -11 65
3 17 -1 54 -8 81 -8 28 -14 41 -15 30 -1 -19 -1 -19 -11 -2 -28 49 -81 267
-101 421 -11 86 0 152 28 163 8 3 14 18 14 34 0 16 5 59 12 97 10 61 9 75 -11
140 -20 67 -20 74 -6 102 16 32 33 38 53 18 9 -9 12 -9 12 0 0 7 8 21 18 31
21 23 71 18 101 -10 13 -12 22 -15 27 -8 3 6 17 9 31 6 15 -3 27 1 30 9 4 11
8 12 20 3 14 -12 16 -12 86 22 20 9 33 10 45 3 23 -13 50 -7 55 14 3 12 5 10
6 -5 1 -23 15 -31 25 -15 3 5 21 7 40 6 33 -3 36 -1 42 31 3 20 11 32 18 29
26 -10 92 -10 108 0 12 7 23 6 40 -2 16 -9 56 -11 138 -7 63 4 127 7 143 7 15
1 27 5 27 9 0 5 7 9 15 9 8 0 15 -5 15 -11 0 -8 4 -8 13 -2 6 6 26 9 42 8 17
0 42 7 57 17 23 16 61 26 108 30 8 0 21 5 27 10 7 6 21 7 30 3 10 -4 34 -10
53 -12 19 -2 37 -8 38 -14 2 -5 8 -7 13 -3 5 3 14 -7 19 -21 9 -24 12 -26 28
-14 9 8 20 19 24 24 9 14 53 12 72 -4 13 -11 16 -11 16 -1 0 10 3 10 14 1 11
-10 16 -8 24 5 6 10 27 20 53 24 42 5 52 3 98 -19 22 -11 31 -5 31 21 0 10 6
18 13 16 6 -1 29 1 50 6 27 5 37 11 33 21 -3 10 6 16 31 21 24 4 38 3 41 -4 2
-6 10 -8 18 -5 8 3 14 0 14 -6 0 -22 18 -10 39 25 25 42 25 44 6 44 -13 0 -13
3 -3 20 18 29 28 25 28 -13z m-2620 -1 c0 -7 -7 -19 -16 -26 -8 -7 -14 -23
-13 -34 0 -12 0 -34 -1 -51 -2 -29 -2 -28 -11 9 -7 30 -5 47 8 77 18 39 33 50
33 25z m284 -11 c3 -8 1 -15 -4 -15 -6 0 -10 7 -10 15 0 8 2 15 4 15 2 0 6 -7
10 -15z m196 -17 c0 -19 -2 -20 -10 -8 -13 19 -13 30 0 30 6 0 10 -10 10 -22z
m-982 -30 c-7 -13 -18 -43 -25 -68 l-12 -45 5 40 c5 45 36 123 42 107 2 -6 -3
-21 -10 -34z m462 38 c0 -3 -4 -8 -10 -11 -5 -3 -10 -1 -10 4 0 6 5 11 10 11
6 0 10 -2 10 -4z m2620 -12 c0 -8 -5 -12 -10 -9 -6 4 -8 11 -5 16 9 14 15 11
15 -7z m-2181 -59 c1 -16 -1 -17 -9 -5 -5 8 -9 29 -9 45 1 29 1 29 9 5 4 -14
8 -34 9 -45z m-210 9 c-14 -51 -29 -67 -29 -30 0 22 29 79 37 72 1 -1 -2 -20
-8 -42z m-189 26 c0 -5 -4 -10 -10 -10 -5 0 -10 5 -10 10 0 6 5 10 10 10 6 0
10 -4 10 -10z m-360 -15 c0 -8 -4 -15 -10 -15 -5 0 -7 7 -4 15 4 8 8 15 10 15
2 0 4 -7 4 -15z m387 -27 c-3 -7 -5 -2 -5 12 0 14 2 19 5 13 2 -7 2 -19 0 -25z
m663 6 c0 -8 -4 -12 -10 -9 -5 3 -10 10 -10 16 0 5 5 9 10 9 6 0 10 -7 10 -16z
m-476 -19 c3 -8 1 -15 -4 -15 -6 0 -10 7 -10 15 0 8 2 15 4 15 2 0 6 -7 10
-15z m3128 -7 c-7 -7 -12 -8 -12 -2 0 14 12 26 19 19 2 -3 -1 -11 -7 -17z
m-3455 -110 c-3 -8 -6 -5 -6 6 -1 11 2 17 5 13 3 -3 4 -12 1 -19z m663 -50 c0
-6 -6 -5 -15 2 -8 7 -15 14 -15 16 0 2 7 1 15 -2 8 -4 15 -11 15 -16z m-61
-31 c1 -5 -3 -5 -9 -2 -5 3 -10 16 -9 28 0 21 1 21 9 2 5 -11 9 -24 9 -28z
m-24 -39 l16 -33 -20 25 c-20 24 -26 40 -16 40 2 0 12 -15 20 -32z m-521 -299
c-8 -13 -24 -1 -24 18 0 13 3 13 15 3 8 -7 12 -16 9 -21z m56 -118 c0 -26 -16
-42 -33 -35 -19 7 -22 20 -7 29 6 3 10 18 10 33 1 26 1 26 15 8 8 -11 15 -27
15 -35z m3016 -69 c-13 -12 -17 8 -9 44 l8 39 3 -39 c2 -21 1 -41 -2 -44z
m-3155 45 c-10 -9 -11 -8 -5 6 3 10 9 15 12 12 3 -3 0 -11 -7 -18z m-14 -39
c-3 -8 -6 -5 -6 6 -1 11 2 17 5 13 3 -3 4 -12 1 -19z m3288 -26 c-8 -8 -25 10
-19 20 4 6 9 5 15 -3 4 -7 6 -15 4 -17z m-3090 1 c11 -15 10 -20 -8 -35 -11
-10 -24 -18 -29 -18 -12 0 -10 44 4 58 16 16 18 15 33 -5z m2563 -86 c-16 -71
-28 -67 -28 9 0 43 5 75 12 82 19 19 28 -37 16 -91z m389 51 c-3 -7 -5 -2 -5
12 0 14 2 19 5 13 2 -7 2 -19 0 -25z m140 0 c-3 -8 -6 -5 -6 6 -1 11 2 17 5
13 3 -3 4 -12 1 -19z m-3053 -67 c10 -22 24 -37 30 -35 11 4 43 -53 38 -70 -2
-4 3 -14 9 -22 6 -8 13 -24 14 -37 4 -37 5 -38 13 -33 23 14 61 -57 62 -113 0
-23 31 -83 57 -109 7 -7 13 -20 13 -28 0 -8 11 -36 24 -62 42 -81 67 -155 54
-163 -7 -5 -6 -13 4 -28 8 -11 18 -18 23 -13 4 4 3 -2 -3 -13 -8 -16 -5 -29
19 -63 29 -42 38 -82 19 -82 -5 0 -13 6 -17 13 -4 6 -15 12 -23 12 -10 0 -14
8 -12 28 1 15 -2 27 -8 27 -5 0 -10 7 -10 15 0 7 -7 18 -16 23 -9 5 -17 13
-17 18 -1 5 -9 9 -17 9 -10 0 -15 10 -15 27 1 14 -4 24 -9 21 -5 -4 -7 3 -3
17 4 16 1 23 -14 27 -10 3 -19 9 -19 14 0 5 -7 6 -15 3 -12 -5 -14 0 -9 25 5
24 3 31 -9 31 -9 0 -15 8 -14 18 2 28 -27 114 -40 119 -6 3 -9 11 -6 19 3 9
-2 14 -16 14 -22 0 -28 14 -11 25 13 8 13 25 0 25 -21 0 -36 24 -32 50 2 16
-3 33 -13 44 -9 9 -14 24 -11 32 3 9 -1 25 -9 37 -11 16 -12 24 -3 35 10 11 9
17 -5 27 -9 7 -17 20 -17 29 0 9 -7 16 -15 16 -19 0 -19 14 1 31 14 11 13 14
-6 29 -14 10 -19 22 -14 33 10 28 28 19 48 -22z m6194 0 c3 -8 -1 -12 -9 -9
-7 2 -15 10 -17 17 -3 8 1 12 9 9 7 -2 15 -10 17 -17z m-6416 -13 c-7 -7 -12
-8 -12 -2 0 6 3 14 7 17 3 4 9 5 12 2 2 -3 -1 -11 -7 -17z m2714 -87 c-6 -37
-81 -201 -92 -201 -3 0 -3 8 1 18 4 9 9 37 12 62 2 25 11 65 20 90 8 25 17 50
19 57 1 6 13 11 24 10 19 -1 21 -6 16 -36z m-2635 -114 c-13 -12 -20 -15 -16
-7 14 26 28 41 33 35 3 -3 -5 -16 -17 -28z m409 -53 c0 -2 -5 -4 -11 -4 -5 0
-17 16 -25 35 -22 54 -16 64 11 16 14 -23 25 -45 25 -47z m2370 51 c0 -8 -4
-15 -10 -15 -5 0 -10 7 -10 15 0 8 5 15 10 15 6 0 10 -7 10 -15z m367 -8 c12
-13 24 -41 28 -63 l6 -39 -20 43 c-12 24 -31 52 -43 62 -17 14 -19 19 -8 19 8
1 25 -10 37 -22z m-3116 -44 c-12 -20 -14 -14 -5 12 4 9 9 14 11 11 3 -2 0
-13 -6 -23z m2726 -5 c-3 -8 -6 -5 -6 6 -1 11 2 17 5 13 3 -3 4 -12 1 -19z
m273 -19 c0 -11 -4 -17 -10 -14 -5 3 -10 13 -10 21 0 8 5 14 10 14 6 0 10 -9
10 -21z m114 -35 c5 -14 4 -15 -9 -4 -17 14 -19 20 -6 20 5 0 12 -7 15 -16z
m43 -61 c-3 -10 -5 -4 -5 12 0 17 2 24 5 18 2 -7 2 -21 0 -30z m-157 -25 c0
-13 -23 -5 -28 10 -2 7 2 10 12 6 9 -3 16 -11 16 -16z m-2944 -18 c-1 -16 -7
-35 -14 -42 -9 -9 -12 -5 -12 24 0 20 6 39 13 41 6 3 13 6 13 6 1 1 1 -12 0
-29z m2614 0 c-6 -12 -14 -19 -17 -17 -2 3 1 15 7 27 6 12 14 19 17 17 2 -3
-1 -15 -7 -27z m-2809 -60 c-5 -25 -9 -35 -10 -24 -1 28 11 92 16 79 1 -6 -1
-30 -6 -55z m3146 -66 c-6 -7 -47 78 -47 97 0 8 12 -10 26 -39 14 -30 24 -56
21 -58z m-360 74 c-3 -8 -6 -5 -6 6 -1 11 2 17 5 13 3 -3 4 -12 1 -19z m-2555
-70 c-7 -7 -12 -8 -12 -2 0 14 12 26 19 19 2 -3 -1 -11 -7 -17z m-62 -67 c-22
-32 -30 -38 -30 -22 0 12 41 63 47 57 3 -3 -5 -19 -17 -35z m90 30 c0 -5 -7
-12 -16 -15 -14 -5 -15 -4 -4 9 14 17 20 19 20 6z m2854 -17 c3 -8 2 -12 -4
-9 -6 3 -10 10 -10 16 0 14 7 11 14 -7z m-203 -35 c-6 -16 -10 -18 -10 -7 -1
22 12 55 16 42 2 -6 -1 -22 -6 -35z m254 31 c3 -5 1 -10 -4 -10 -6 0 -11 5
-11 10 0 6 2 10 4 10 3 0 8 -4 11 -10z m-2979 -58 c-18 -16 -18 -16 -6 6 6 13
14 21 18 18 3 -4 -2 -14 -12 -24z m-174 -12 c-2 -16 -6 -30 -8 -30 -2 0 -4 14
-4 30 0 17 4 30 8 30 5 0 7 -13 4 -30z m3028 10 c0 -5 -5 -10 -11 -10 -5 0 -7
5 -4 10 3 6 8 10 11 10 2 0 4 -4 4 -10z m-349 -27 c-8 -15 -10 -15 -11 -2 0
17 10 32 18 25 2 -3 -1 -13 -7 -23z m209 18 c0 -6 -4 -13 -10 -16 -5 -3 -10 1
-10 9 0 9 5 16 10 16 6 0 10 -4 10 -9z m-2610 -14 c0 -2 -12 -14 -27 -28 -24
-22 -23 -11 2 18 9 11 25 17 25 10z m2795 -27 c3 -5 -1 -10 -9 -10 -9 0 -16 5
-16 10 0 6 4 10 9 10 6 0 13 -4 16 -10z m-2804 -43 c-10 -9 -11 -8 -5 6 3 10
9 15 12 12 3 -3 0 -11 -7 -18z m2250 -20 c-8 -8 -11 -7 -11 4 0 20 13 34 18
19 3 -7 -1 -17 -7 -23z m3974 9 c15 -22 12 -56 -5 -56 -12 0 -16 9 -25 48 -8
38 7 43 30 8z m-3865 0 c0 -2 -8 -10 -17 -17 -16 -13 -17 -12 -4 4 13 16 21
21 21 13z m-2314 -42 c-4 -9 -9 -15 -11 -12 -3 3 -3 13 1 22 4 9 9 15 11 12 3
-3 3 -13 -1 -22z m224 6 c0 -5 -2 -10 -4 -10 -3 0 -8 5 -11 10 -3 6 -1 10 4
10 6 0 11 -4 11 -10z m2046 -28 c-17 -16 -18 -16 -5 5 7 12 15 20 18 17 3 -2
-3 -12 -13 -22z m399 0 c-3 -3 -11 0 -18 7 -9 10 -8 11 6 5 10 -3 15 -9 12
-12z m-2626 -45 c-5 -20 -14 -37 -20 -37 -13 0 -1 63 14 72 17 10 18 6 6 -35z
m2193 1 c-7 -7 -12 -8 -12 -2 0 14 12 26 19 19 2 -3 -1 -11 -7 -17z m-1912
-24 c0 -8 -4 -14 -9 -14 -11 0 -22 26 -14 34 9 9 23 -3 23 -20z m2317 -26 c-3
-7 -5 -2 -5 12 0 14 2 19 5 13 2 -7 2 -19 0 -25z m150 -10 c-3 -8 -6 -5 -6 6
-1 11 2 17 5 13 3 -3 4 -12 1 -19z m-7846 -21 c-10 -9 -11 -8 -5 6 3 10 9 15
12 12 3 -3 0 -11 -7 -18z m7736 -19 c-3 -8 -6 -5 -6 6 -1 11 2 17 5 13 3 -3 4
-12 1 -19z m17 -44 c9 -8 16 -20 16 -25 0 -12 -32 4 -50 25 -10 13 -10 16 3
16 9 0 23 -7 31 -16z m-104 -84 c0 -5 -2 -10 -4 -10 -3 0 -8 5 -11 10 -3 6 -1
10 4 10 6 0 11 -4 11 -10z m-1970 -70 c0 -5 -4 -10 -10 -10 -5 0 -10 5 -10 10
0 6 5 10 10 10 6 0 10 -4 10 -10z m40 -20 c0 -5 -4 -10 -9 -10 -6 0 -13 5 -16
10 -3 6 1 10 9 10 9 0 16 -4 16 -10z m1860 -99 c0 -21 -16 -2 -24 29 -7 24 -6
24 8 6 9 -11 16 -27 16 -35z m-2517 -16 c-3 -9 -8 -14 -10 -11 -3 3 -2 9 2 15
9 16 15 13 8 -4z m2306 -253 c1 -7 -3 -10 -9 -7 -5 3 -10 21 -9 38 1 31 1 31
9 7 4 -14 8 -31 9 -38z m48 16 c-3 -7 -5 -2 -5 12 0 14 2 19 5 13 2 -7 2 -19
0 -25z m-260 -100 c-3 -7 -5 -2 -5 12 0 14 2 19 5 13 2 -7 2 -19 0 -25z m-205
-138 c-2 -17 -8 -33 -13 -36 -10 -6 -12 49 -2 59 14 14 19 6 15 -23z m-22 -70
c0 -5 -5 -10 -11 -10 -5 0 -7 5 -4 10 3 6 8 10 11 10 2 0 4 -4 4 -10z"/>
<path d="M9063 8315 c-9 -20 -8 -25 3 -25 8 0 14 10 14 25 0 31 -2 31 -17 0z"/>
<path d="M8026 7135 c4 -8 8 -15 10 -15 2 0 4 7 4 15 0 8 -4 15 -10 15 -5 0
-7 -7 -4 -15z"/>
<path d="M8124 7029 c-3 -6 1 -18 10 -27 15 -15 16 -14 16 11 0 27 -13 36 -26
16z"/>
<path d="M8000 6940 c0 -5 5 -10 10 -10 6 0 10 5 10 10 0 6 -4 10 -10 10 -5 0
-10 -4 -10 -10z"/>
<path d="M4946 6855 c-25 -23 -32 -26 -53 -24 -10 1 -24 -41 -17 -52 3 -5 24
6 47 26 30 26 43 32 48 23 6 -10 12 -8 23 7 11 15 11 21 3 24 -7 2 -15 8 -18
13 -3 5 -18 -3 -33 -17z"/>
<path d="M4954 6785 c-7 -28 0 -55 16 -55 13 0 13 67 0 75 -5 3 -12 -6 -16
-20z"/>
<path d="M4830 6765 c-17 -21 -9 -27 13 -10 10 7 14 16 9 19 -5 3 -15 -1 -22
-9z"/>
<path d="M4837 6697 c-21 -25 -22 -43 -3 -50 27 -11 47 31 28 60 -5 8 -12 5
-25 -10z"/>
<path d="M4482 6345 c0 -16 2 -22 5 -12 2 9 2 23 0 30 -3 6 -5 -1 -5 -18z"/>
<path d="M6625 5070 c-3 -5 1 -10 10 -10 9 0 13 5 10 10 -3 6 -8 10 -10 10 -2
0 -7 -4 -10 -10z"/>
<path d="M5870 5241 c0 -5 5 -13 10 -16 6 -3 10 -2 10 4 0 5 -4 13 -10 16 -5
3 -10 2 -10 -4z"/>
<path d="M5905 5220 c3 -5 10 -10 16 -10 5 0 9 5 9 10 0 6 -7 10 -16 10 -8 0
-12 -4 -9 -10z"/>
<path d="M5920 5086 c0 -18 4 -24 15 -20 8 4 15 8 15 11 0 2 -7 11 -15 19 -13
14 -15 13 -15 -10z"/>
<path d="M7622 4921 c-11 -7 -10 -10 3 -15 9 -3 26 -6 38 -6 22 1 22 1 3 15
-23 17 -26 18 -44 6z"/>
<path d="M7440 4820 c0 -5 5 -10 10 -10 6 0 10 5 10 10 0 6 -4 10 -10 10 -5 0
-10 -4 -10 -10z"/>
<path d="M7335 4720 c-3 -5 -1 -10 4 -10 6 0 11 5 11 10 0 6 -2 10 -4 10 -3 0
-8 -4 -11 -10z"/>
<path d="M6070 4709 c0 -5 5 -7 10 -4 6 3 10 8 10 11 0 2 -4 4 -10 4 -5 0 -10
-5 -10 -11z"/>
<path d="M6980 4663 c0 -16 5 -19 33 -14 23 3 26 6 12 9 -11 2 -26 9 -32 14
-10 8 -13 5 -13 -9z"/>
<path d="M6315 4649 c-4 -6 -5 -12 -2 -15 2 -3 7 2 10 11 7 17 1 20 -8 4z"/>
<path d="M7650 4583 c-18 -21 -14 -53 9 -70 21 -16 36 -11 37 14 1 11 4 32 8
47 5 22 3 26 -17 26 -12 0 -29 -8 -37 -17z"/>
<path d="M6240 4550 c0 -15 6 -19 30 -17 35 2 40 22 8 31 -35 9 -38 8 -38 -14z"/>
<path d="M6511 4561 c-11 -7 -11 -9 0 -13 19 -6 49 2 49 13 0 11 -31 11 -49 0z"/>
<path d="M7586 4561 c-4 -5 -2 -12 3 -15 5 -4 12 -2 15 3 4 5 2 12 -3 15 -5 4
-12 2 -15 -3z"/>
<path d="M6201 4544 c0 -11 3 -14 6 -6 3 7 2 16 -1 19 -3 4 -6 -2 -5 -13z"/>
<path d="M7716 4524 c-4 -9 -4 -19 -1 -22 2 -3 7 3 11 12 4 9 4 19 1 22 -2 3
-7 -3 -11 -12z"/>
<path d="M6042 4508 c-7 -7 -12 -16 -12 -20 0 -12 28 -10 36 3 10 17 -10 31
-24 17z"/>
<path d="M7410 4405 c0 -8 2 -15 4 -15 2 0 6 7 10 15 3 8 1 15 -4 15 -6 0 -10
-7 -10 -15z"/>
<path d="M7027 4391 c-2 -10 -1 -25 4 -32 6 -10 9 -4 9 19 0 36 -5 42 -13 13z"/>
<path d="M7455 4400 c-3 -5 -1 -10 4 -10 6 0 11 5 11 10 0 6 -2 10 -4 10 -3 0
-8 -4 -11 -10z"/>
<path d="M7704 4374 c3 -9 6 -19 6 -22 0 -9 20 21 20 31 0 4 -7 7 -16 7 -11 0
-14 -5 -10 -16z"/>
<path d="M5905 4370 c-7 -12 2 -30 16 -30 5 0 9 9 9 20 0 21 -15 27 -25 10z"/>
<path d="M7050 4371 c0 -13 29 -35 37 -27 3 3 1 6 -5 6 -7 0 -12 7 -12 15 0 8
-4 15 -10 15 -5 0 -10 -4 -10 -9z"/>
<path d="M6724 4341 c1 -24 4 -27 16 -18 8 6 17 12 19 14 4 2 -25 33 -32 33
-2 0 -4 -13 -3 -29z"/>
<path d="M6870 4360 c0 -5 5 -10 10 -10 6 0 10 5 10 10 0 6 -4 10 -10 10 -5 0
-10 -4 -10 -10z"/>
<path d="M7116 4361 c-4 -7 -5 -15 -2 -18 9 -9 19 4 14 18 -4 11 -6 11 -12 0z"/>
<path d="M7390 4360 c0 -6 7 -10 15 -10 8 0 15 2 15 4 0 2 -7 6 -15 10 -8 3
-15 1 -15 -4z"/>
<path d="M7806 4361 c-4 -7 -5 -15 -2 -18 9 -9 19 4 14 18 -4 11 -6 11 -12 0z"/>
<path d="M5810 4339 c0 -6 7 -8 17 -5 9 4 20 1 25 -6 6 -10 8 -8 8 5 0 12 -8
17 -25 17 -14 0 -25 -5 -25 -11z"/>
<path d="M7212 4325 c-6 -14 -10 -25 -8 -25 2 0 11 11 20 25 9 14 13 25 8 25
-5 0 -14 -11 -20 -25z"/>
<path d="M7350 4340 c0 -5 5 -10 10 -10 6 0 10 5 10 10 0 6 -4 10 -10 10 -5 0
-10 -4 -10 -10z"/>
<path d="M5937 4333 c-4 -3 -7 -11 -7 -17 0 -6 5 -5 12 2 6 6 9 14 7 17 -3 3
-9 2 -12 -2z"/>
<path d="M6856 4324 c-8 -22 -8 -26 4 -19 6 3 10 -1 10 -9 0 -9 6 -16 14 -16
17 0 11 34 -9 50 -9 8 -14 6 -19 -6z"/>
<path d="M6956 4321 c-4 -7 -5 -15 -2 -18 9 -9 19 4 14 18 -4 11 -6 11 -12 0z"/>
<path d="M7130 4306 c0 -9 -7 -16 -16 -16 -26 0 -9 -25 19 -28 21 -3 27 1 27
16 0 11 -7 25 -15 32 -12 10 -15 10 -15 -4z"/>
<path d="M6562 4288 c3 -7 1 -21 -4 -30 -7 -14 -3 -19 17 -24 14 -4 28 -4 31
-1 11 10 -7 47 -28 58 -16 9 -19 8 -16 -3z"/>
<path d="M6432 4268 c6 -16 36 -34 44 -26 8 9 -20 38 -36 38 -6 0 -10 -5 -8
-12z"/>
<path d="M6230 4201 c0 -24 11 -32 28 -22 16 10 5 41 -14 41 -8 0 -14 -9 -14
-19z"/>
<path d="M7368 4192 c-19 -4 -24 -17 -9 -26 5 -3 14 1 21 9 15 18 12 23 -12
17z"/>
<path d="M6297 4183 c-4 -3 -7 -15 -7 -26 0 -19 1 -20 20 -2 11 10 20 22 20
27 0 10 -24 11 -33 1z"/>
<path d="M7098 4179 c13 -5 20 -13 17 -19 -3 -5 -1 -10 4 -10 6 0 11 9 11 20
0 15 -6 20 -27 19 -27 0 -28 0 -5 -10z"/>
<path d="M7255 4180 c3 -5 11 -10 16 -10 6 0 7 5 4 10 -3 6 -11 10 -16 10 -6
0 -7 -4 -4 -10z"/>
<path d="M5910 4165 c-14 -16 -7 -45 11 -45 6 0 9 7 5 15 -3 8 -1 15 4 15 6 0
10 -8 11 -17 0 -15 2 -15 8 2 16 39 -13 61 -39 30z"/>
<path d="M5966 4158 c-6 -24 19 -53 35 -42 15 9 10 52 -7 58 -22 8 -21 9 -28
-16z"/>
<path d="M6024 4143 c-11 -25 -12 -39 -5 -46 8 -8 11 -7 11 2 0 8 7 10 21 6
15 -5 19 -4 14 5 -4 6 0 19 8 28 14 16 13 18 -9 29 -24 11 -26 10 -40 -24z"/>
<path d="M6575 4170 c3 -5 8 -10 11 -10 2 0 4 5 4 10 0 6 -5 10 -11 10 -5 0
-7 -4 -4 -10z"/>
<path d="M7030 4170 c0 -5 4 -10 9 -10 6 0 13 5 16 10 3 6 -1 10 -9 10 -9 0
-16 -4 -16 -10z"/>
<path d="M5881 4154 c0 -11 3 -14 6 -6 3 7 2 16 -1 19 -3 4 -6 -2 -5 -13z"/>
<path d="M7033 4127 c4 -10 -2 -13 -21 -10 -24 3 -24 2 -7 -6 19 -9 19 -10 -2
-10 -28 -1 -30 -17 -3 -24 11 -3 23 1 28 8 4 8 16 13 27 12 14 -1 21 5 23 21
3 18 -1 22 -23 22 -19 0 -26 -4 -22 -13z"/>
<path d="M6177 4119 c7 -7 15 -10 18 -7 3 3 -2 9 -12 12 -14 6 -15 5 -6 -5z"/>
<path d="M6560 4105 c0 -8 5 -15 10 -15 6 0 10 7 10 15 0 8 -4 15 -10 15 -5 0
-10 -7 -10 -15z"/>
<path d="M6630 4111 c0 -9 44 -41 56 -41 4 0 0 8 -9 18 -10 10 -14 22 -10 25
3 4 -3 7 -15 7 -12 0 -22 -4 -22 -9z"/>
<path d="M6770 4094 c0 -14 4 -23 10 -19 6 3 10 15 10 26 0 10 -4 19 -10 19
-5 0 -10 -12 -10 -26z"/>
<path d="M7105 4110 c3 -5 8 -10 11 -10 2 0 4 5 4 10 0 6 -5 10 -11 10 -5 0
-7 -4 -4 -10z"/>
<path d="M5987 4094 c-8 -8 1 -24 14 -24 5 0 9 7 9 15 0 15 -12 20 -23 9z"/>
<path d="M6640 4060 c0 -5 5 -10 11 -10 5 0 7 5 4 10 -3 6 -8 10 -11 10 -2 0
-4 -4 -4 -10z"/>
<path d="M6700 4055 c0 -8 2 -15 4 -15 2 0 6 7 10 15 3 8 1 15 -4 15 -6 0 -10
-7 -10 -15z"/>
<path d="M8554 4499 c-3 -6 -1 -16 5 -22 8 -8 11 -5 11 11 0 24 -5 28 -16 11z"/>
<path d="M8521 4363 c0 -4 4 -17 9 -28 8 -19 9 -19 9 2 1 12 -3 25 -9 28 -5 3
-10 3 -9 -2z"/>
<path d="M8482 4300 c0 -19 2 -27 5 -17 2 9 2 25 0 35 -3 9 -5 1 -5 -18z"/>
<path d="M5000 4223 c-24 -12 -24 -13 -3 -13 12 0 25 5 28 11 11 16 2 17 -25
2z"/>
<path d="M5159 4190 c-1 -8 -3 -19 -3 -25 -1 -5 -7 -20 -14 -32 -15 -28 -15
-33 2 -33 20 0 37 55 26 83 -6 14 -9 17 -11 7z"/>
<path d="M4985 4109 c-4 -6 -5 -12 -2 -15 2 -3 7 2 10 11 7 17 1 20 -8 4z"/>
<path d="M7257 3763 c-12 -11 -8 -23 7 -23 8 0 16 7 20 15 5 15 -14 21 -27 8z"/>
<path d="M7575 3565 c-3 -8 -7 -21 -9 -28 -2 -7 2 -21 9 -31 12 -16 15 -14 24
21 6 21 11 41 11 46 0 14 -31 7 -35 -8z"/>
<path d="M5928 3513 c18 -15 32 -33 32 -39 0 -5 -11 -26 -25 -44 -28 -38 -19
-51 22 -29 39 21 44 0 41 -176 -1 -113 2 -173 11 -204 14 -42 13 -44 -10 -62
-18 -14 -21 -21 -12 -30 16 -16 43 -4 43 19 0 34 20 79 35 79 8 0 15 -5 15
-11 0 -5 10 1 23 14 12 14 21 28 19 32 -1 5 7 8 18 8 11 0 20 6 20 14 0 16 43
30 48 16 2 -6 10 -10 17 -10 8 0 17 -9 20 -20 7 -23 25 -27 25 -5 0 18 16 20
26 4 4 -8 9 -7 15 2 8 11 12 11 23 -4 9 -12 16 -14 21 -7 4 6 15 8 26 5 10 -4
24 -3 31 2 18 11 68 12 68 2 0 -5 11 -7 24 -3 13 3 27 1 30 -5 11 -17 43 -13
50 5 4 11 13 14 28 11 11 -3 34 1 49 8 15 8 35 12 43 9 9 -3 16 -1 16 5 0 6 7
8 15 5 8 -4 15 -2 15 4 0 19 32 22 77 7 44 -15 45 -15 116 19 40 19 74 31 77
27 6 -8 39 -7 91 4 24 4 45 2 60 -6 17 -9 24 -9 27 0 5 16 29 14 36 -5 3 -8
10 -13 15 -10 11 7 61 -14 61 -26 0 -4 12 -8 27 -8 24 0 25 -1 10 -12 -16 -12
-15 -13 7 -13 22 0 24 4 20 25 -6 25 -6 25 20 -4 30 -33 30 -33 14 -110 -9
-49 -9 -59 5 -73 15 -15 16 -15 10 5 -9 35 15 89 42 96 37 9 31 28 -18 59 -15
10 -25 22 -22 28 4 5 9 44 11 86 2 43 8 80 13 83 13 7 -31 55 -68 74 -33 17
-38 34 -21 67 7 13 7 19 0 19 -5 0 -10 -5 -10 -11 0 -5 -4 -8 -9 -5 -5 3 -11
-1 -15 -9 -3 -9 -18 -15 -34 -15 -16 0 -69 -7 -118 -17 -116 -21 -324 -24
-324 -4 0 11 -5 9 -21 -5 -12 -10 -23 -18 -25 -16 -18 11 -22 -8 -18 -78 5
-70 3 -85 -16 -115 -15 -24 -29 -35 -45 -35 -13 0 -26 -4 -29 -8 -7 -11 -221
-3 -262 9 -41 13 -110 85 -128 134 -8 22 -15 34 -15 28 -2 -23 -59 -43 -120
-43 -54 0 -63 3 -97 35 -29 27 -35 39 -30 57 16 53 19 98 6 98 -7 0 -25 10
-40 23 -62 49 -93 72 -104 75 -6 2 4 -9 22 -25z"/>
<path d="M7487 3513 c-4 -3 -7 -11 -7 -17 0 -6 5 -5 12 2 6 6 9 14 7 17 -3 3
-9 2 -12 -2z"/>
<path d="M6281 3370 c0 -33 1 -34 11 -12 8 17 8 26 0 34 -9 9 -12 4 -11 -22z"/>
<path d="M7537 3363 c-4 -3 -7 -13 -7 -22 1 -13 3 -13 11 2 11 19 8 33 -4 20z"/>
<path d="M7495 3281 c-41 -9 -22 -18 55 -27 l65 -7 -19 22 c-19 21 -44 24
-101 12z"/>
<path d="M8150 3220 c0 -5 5 -10 10 -10 6 0 10 5 10 10 0 6 -4 10 -10 10 -5 0
-10 -4 -10 -10z"/>
<path d="M5873 3163 c-7 -3 -13 -9 -13 -15 0 -10 59 -2 72 11 8 7 -40 10 -59
4z"/>
<path d="M7367 2933 c-4 -3 -7 -11 -7 -17 0 -6 5 -5 12 2 6 6 9 14 7 17 -3 3
-9 2 -12 -2z"/>
<path d="M6050 2801 c0 -22 17 -37 28 -26 4 4 2 10 -5 12 -7 2 -9 11 -6 19 3
8 0 14 -6 14 -6 0 -11 -9 -11 -19z"/>
<path d="M6071 2734 c0 -11 3 -14 6 -6 3 7 2 16 -1 19 -3 4 -6 -2 -5 -13z"/>
<path d="M7756 2331 c-4 -7 -5 -15 -2 -18 9 -9 19 4 14 18 -4 11 -6 11 -12 0z"/>
<path d="M6017 2270 c-3 -11 -1 -23 4 -26 5 -3 9 6 9 20 0 31 -6 34 -13 6z"/>
<path d="M7360 1916 c0 -8 -6 -17 -12 -19 -8 -4 -7 -6 3 -6 19 -1 33 25 19 34
-6 4 -10 0 -10 -9z"/>
<path d="M7316 1620 c-10 -52 -7 -70 11 -70 9 0 13 3 10 6 -3 4 -3 14 2 23 5
9 3 28 -4 45 l-12 28 -7 -32z"/>
<path d="M7210 1420 c0 -5 5 -10 10 -10 6 0 10 5 10 10 0 6 -4 10 -10 10 -5 0
-10 -4 -10 -10z"/>
<path d="M6445 1060 c3 -5 8 -10 11 -10 2 0 4 5 4 10 0 6 -5 10 -11 10 -5 0
-7 -4 -4 -10z"/>
<path d="M5331 9574 c0 -11 3 -14 6 -6 3 7 2 16 -1 19 -3 4 -6 -2 -5 -13z"/>
<path d="M4488 9243 c-10 -2 -18 -11 -18 -19 0 -12 3 -12 20 -2 11 7 20 16 20
20 0 5 -1 7 -2 7 -2 -1 -11 -3 -20 -6z"/>
<path d="M4304 9124 c-18 -14 -18 -15 4 -4 12 6 22 13 22 15 0 8 -5 6 -26 -11z"/>
<path d="M4165 8960 c-3 -5 1 -10 9 -10 9 0 16 5 16 10 0 6 -4 10 -9 10 -6 0
-13 -4 -16 -10z"/>
<path d="M3970 8759 c0 -5 5 -7 10 -4 6 3 10 8 10 11 0 2 -4 4 -10 4 -5 0 -10
-5 -10 -11z"/>
<path d="M1600 5689 c0 -5 5 -7 10 -4 6 3 10 8 10 11 0 2 -4 4 -10 4 -5 0 -10
-5 -10 -11z"/>
<path d="M11150 5149 c0 -5 5 -7 10 -4 6 3 10 8 10 11 0 2 -4 4 -10 4 -5 0
-10 -5 -10 -11z"/>
<path d="M685 3809 c-11 -17 1 -21 15 -4 8 9 8 15 2 15 -6 0 -14 -5 -17 -11z"/>
<path d="M212 2337 c-32 -34 -28 -58 4 -25 15 14 25 31 22 38 -2 7 -12 2 -26
-13z"/>
</g>
</svg>
